<svg width="61" height="61" viewBox="0 0 61 61" fill="none" xmlns="http://www.w3.org/2000/svg">
<path fill-rule="evenodd" clip-rule="evenodd" d="M3.14453 19.0154C3.14453 17.9799 3.984 17.1404 5.01953 17.1404L55.6445 17.1404C56.6801 17.1404 57.5195 17.9799 57.5195 19.0154C57.5195 20.051 56.6801 20.8904 55.6445 20.8904L52.6693 20.8904L51.8868 29.4977C51.8299 30.1243 51.4624 30.6805 50.9085 30.9788L39.6111 37.062C39.5893 37.2243 39.5641 37.3883 39.5363 37.5477C39.4823 37.8564 39.4081 38.2058 39.3067 38.5305C39.2371 38.7534 39.0521 39.332 38.6087 39.7754C37.9054 40.4787 36.9516 40.8738 35.957 40.8738L24.707 40.8738C23.7125 40.8738 22.7586 40.4787 22.0554 39.7754C21.6119 39.332 21.427 38.7534 21.3574 38.5305C21.2559 38.2058 21.1818 37.8564 21.1278 37.5477C21.0999 37.3883 21.0748 37.2243 21.053 37.062L9.75559 30.9788C9.20162 30.6805 8.83419 30.1243 8.77723 29.4977L7.99475 20.8904L5.01953 20.8904C3.984 20.8904 3.14453 20.051 3.14453 19.0154ZM11.7602 20.8904L12.4206 28.1547L23.721 34.2396C24.3283 34.5666 24.707 35.2007 24.707 35.8904C24.707 35.9225 24.7124 36.0508 24.7337 36.2607C24.7538 36.4577 24.7837 36.6843 24.8217 36.9016C24.8358 36.9823 24.8502 37.0566 24.8644 37.1238L35.7997 37.1238C35.8139 37.0566 35.8282 36.9823 35.8423 36.9016C35.8803 36.6843 35.9102 36.4577 35.9303 36.2607C35.9517 36.0508 35.957 35.9225 35.957 35.8904C35.957 35.2007 36.3358 34.5666 36.9431 34.2396L48.2435 28.1547L48.9038 20.8904L11.7602 20.8904Z" fill="#FFCA62"/>
<path fill-rule="evenodd" clip-rule="evenodd" d="M11.9704 34.5646C12.7026 35.2968 12.7026 36.484 11.9704 37.2162L7.28286 41.9037C6.55062 42.6359 5.36344 42.6359 4.63121 41.9037C3.89897 41.1715 3.89897 39.9843 4.63121 39.2521L9.31871 34.5646C10.0509 33.8323 11.2381 33.8323 11.9704 34.5646Z" fill="#FFCA62"/>
<path fill-rule="evenodd" clip-rule="evenodd" d="M48.6976 34.5646C47.9654 35.2968 47.9654 36.484 48.6976 37.2162L53.3851 41.9037C54.1173 42.6359 55.3045 42.6359 56.0368 41.9037C56.769 41.1715 56.769 39.9843 56.0368 39.2521L51.3493 34.5646C50.617 33.8323 49.4298 33.8323 48.6976 34.5646Z" fill="#FFCA62"/>
<path fill-rule="evenodd" clip-rule="evenodd" d="M17.5954 38.3146C18.3276 39.0468 18.3276 40.234 17.5954 40.9662L12.9079 45.6537C12.1756 46.3859 10.9884 46.3859 10.2562 45.6537C9.52397 44.9215 9.52397 43.7343 10.2562 43.0021L14.9437 38.3146C15.6759 37.5823 16.8631 37.5823 17.5954 38.3146Z" fill="#FFCA62"/>
<path fill-rule="evenodd" clip-rule="evenodd" d="M43.0668 38.3146C42.3345 39.0468 42.3345 40.234 43.0668 40.9662L47.7543 45.6537C48.4865 46.3859 49.6737 46.3859 50.4059 45.6537C51.1381 44.9215 51.1381 43.7343 50.4059 43.0021L45.7184 38.3146C44.9862 37.5823 43.799 37.5823 43.0668 38.3146Z" fill="#FFCA62"/>
<circle cx="30.332" cy="32.1404" r="1.875" fill="#FFCA62"/>
</svg>
