<svg height="744" width="1366" viewBox="0 0 1366 744" fill="none" xmlns="http://www.w3.org/2000/svg">
<g opacity="0.02">
<path d="M819.357 0L844.428 19.4687L955.947 106.128L819.357 212.375V0Z" fill="#FCFCFD"/>
<path d="M955.947 318.62L819.357 212.373L955.947 106.246V318.62Z" fill="#FCFCFD"/>
<path d="M545.943 424.986V424.868V212.612L682.415 318.74L545.943 424.986Z" fill="#FCFCFD"/>
<path d="M409.588 531.115L272.998 424.868L409.588 318.74V531.115Z" fill="#FCFCFD"/>
<path d="M136.59 318.799L0 212.553L136.59 106.425V318.681V318.799Z" fill="#FCFCFD"/>
<path d="M272.998 0.237061L409.588 106.484L272.998 212.612V0.237061Z" fill="#FCFCFD"/>
<path d="M272.999 212.612L136.527 106.484L272.999 0.237061V212.612Z" fill="#FCFCFD"/>
<path d="M1365.94 211.722L1229.36 317.85V105.475L1365.94 211.722Z" fill="#FCFCFD"/>
<path d="M546.062 424.868L682.649 318.74V531.115L546.062 424.868Z" fill="#FCFCFD"/>
<path d="M819.121 424.868L682.648 531.115V318.74L819.121 424.868Z" fill="#FCFCFD"/>
<path d="M546.41 0.6521V213.027L683 106.78L546.41 0.6521Z" fill="#FCFCFD"/>
<path d="M1229.36 318.443V530.817V530.937L1092.89 424.69V212.314L1229.36 318.443Z" fill="#FCFCFD"/>
<path d="M272.703 425.342V212.968L409.293 319.215L272.703 425.342Z" fill="#FCFCFD"/>
<path d="M272.702 425.342V425.462L136.23 319.215L272.702 212.968V425.342Z" fill="#FCFCFD"/>
<path d="M1092.54 637.835L956.064 743.963V531.707L1092.54 637.835Z" fill="#FCFCFD"/>
<path d="M546.061 637.243V637.362L409.588 531.115V318.74L546.061 424.868V637.243Z" fill="#FCFCFD"/>
<path d="M682.649 531.115L546.062 637.243V424.868L682.649 531.115Z" fill="#FCFCFD"/>
<path d="M1092.54 637.836L956.064 531.708V531.589V319.214L1092.65 425.461V637.836H1092.54Z" fill="#FCFCFD"/>
<path d="M956.064 106.84L1092.54 212.967L956.064 319.214V106.84Z" fill="#FCFCFD"/>
<path d="M546.062 212.493L682.649 106.365V318.74L546.062 212.493Z" fill="#FCFCFD"/>
<path d="M720.965 289.299L682.768 318.977V106.603L819.357 212.731L720.965 289.299Z" fill="#FCFCFD"/>
<path d="M819.357 425.225V425.106L955.829 318.978V531.353L819.357 425.225Z" fill="#FCFCFD"/>
<path d="M273.174 424.808V637.183L136.584 530.936L273.174 424.808V424.69V424.808Z" fill="#FCFCFD"/>
<path d="M409.528 531.175L273.055 637.421V425.047L409.528 531.175Z" fill="#FCFCFD"/>
<path d="M682.885 530.937L819.357 424.69V424.809V637.065V637.183L682.885 530.937Z" fill="#FCFCFD"/>
<path d="M956.064 106.722L1092.54 0.59375V212.968L956.064 106.722Z" fill="#FCFCFD"/>
<path d="M956.064 318.503L1092.53 212.256L1092.65 212.375V212.256V424.631L956.064 318.503Z" fill="#FCFCFD"/>
<path d="M1229.41 318.384L1365.88 212.256H1366V424.631L1229.41 318.384Z" fill="#FCFCFD"/>
<path d="M819.357 212.849L844.428 232.318L955.829 318.977L819.357 425.224V212.849Z" fill="#FCFCFD"/>
<path d="M819.357 212.731L781.16 242.409L682.768 318.978L819.357 425.106V212.731Z" fill="#FCFCFD"/>
</g>
</svg>
