<svg width="50" height="51" viewBox="0 0 50 51" fill="none" xmlns="http://www.w3.org/2000/svg">
<path d="M50 0.265381V50.2654H0V0.265381H50Z" fill="#E32B30"/>
<path d="M17.9623 34.9037C16.4289 34.9037 15.1693 34.5752 14.1836 33.918C13.2343 33.2243 12.5224 32.3299 12.0478 31.2346C11.6097 30.1393 11.3906 28.971 11.3906 27.7297C11.3906 25.9043 11.7922 24.1883 12.5954 22.5819C13.4351 20.939 14.4756 19.5152 15.717 18.3104C16.9583 17.0691 18.2543 16.1746 19.6052 15.627L23.8767 18.639C22.3799 19.2961 20.9925 20.1541 19.7147 21.2128C18.4734 22.2351 17.5607 23.3304 16.9765 24.4987L17.2503 24.7177C17.4694 24.5352 17.7249 24.4074 18.017 24.3344C18.3456 24.2613 18.7655 24.2248 19.2766 24.2248C20.0068 24.2248 20.7369 24.4074 21.4671 24.7725C22.2338 25.1011 22.8545 25.6304 23.3291 26.3606C23.8402 27.0908 24.0958 28.0035 24.0958 29.0988C24.0958 31.0703 23.4569 32.5307 22.1791 33.4799C20.9377 34.4291 19.5321 34.9037 17.9623 34.9037ZM32.4746 34.9037C30.9412 34.9037 29.6817 34.5752 28.6959 33.918C27.7467 33.2243 27.0348 32.3299 26.5601 31.2346C26.122 30.1393 25.903 28.971 25.903 27.7297C25.903 25.9043 26.3046 24.1883 27.1078 22.5819C27.9475 20.939 28.988 19.5152 30.2293 18.3104C31.4706 17.0691 32.7667 16.1746 34.1175 15.627L38.3891 18.639C36.8922 19.2961 35.5049 20.1541 34.2271 21.2128C32.9857 22.2351 32.073 23.3304 31.4889 24.4987L31.7627 24.7177C31.9817 24.5352 32.2373 24.4074 32.5294 24.3344C32.858 24.2613 33.2778 24.2248 33.7889 24.2248C34.5191 24.2248 35.2493 24.4074 35.9795 24.7725C36.7462 25.1011 37.3668 25.6304 37.8414 26.3606C38.3526 27.0908 38.6081 28.0035 38.6081 29.0988C38.6081 31.0703 37.9692 32.5307 36.6914 33.4799C35.4501 34.4291 34.0445 34.9037 32.4746 34.9037Z" fill="white"/>
</svg>
