<svg width="61" height="61" viewBox="0 0 61 61" fill="none" xmlns="http://www.w3.org/2000/svg">
<path fill-rule="evenodd" clip-rule="evenodd" d="M34.7924 10.5779H32.5415V7.76538C32.5415 6.72985 31.702 5.89038 30.6665 5.89038C29.6309 5.89038 28.7915 6.72985 28.7915 7.76538V10.5779H24.2194C21.0873 10.5779 18.3571 12.7095 17.5974 15.7481C17.3463 16.7527 17.9571 17.7707 18.9617 18.0219C19.9663 18.2731 20.9843 17.6623 21.2355 16.6576C21.5778 15.2884 22.808 14.3279 24.2194 14.3279H28.7915V18.0779H25.0415C21.9349 18.0779 19.4165 20.5963 19.4165 23.7029V49.9529C19.4165 52.5417 21.5151 54.6404 24.104 54.6404H37.229C39.8178 54.6404 41.9165 52.5417 41.9165 49.9529V23.7029C41.9165 20.5963 39.3981 18.0779 36.2915 18.0779H32.5415V14.3279H34.7924C35.4211 15.8288 36.7851 16.9619 38.4747 17.2435L48.3633 18.8916C50.8776 19.3106 53.1665 17.3717 53.1665 14.8227V10.0831C53.1665 7.53406 50.8776 5.59512 48.3633 6.01418L38.4747 7.66228C36.7851 7.94387 35.4211 9.07695 34.7924 10.5779ZM39.0912 11.3613C38.5576 11.4502 38.1665 11.9119 38.1665 12.4529C38.1665 12.9939 38.5576 13.4556 39.0912 13.5445L48.9798 15.1926C49.2084 15.2307 49.4165 15.0544 49.4165 14.8227V10.0831C49.4165 9.85133 49.2084 9.67506 48.9798 9.71316L39.0912 11.3613ZM23.1665 49.9529C23.1665 50.4706 23.5862 50.8904 24.104 50.8904H37.229C37.7467 50.8904 38.1665 50.4706 38.1665 49.9529V23.7029C38.1665 22.6673 37.327 21.8279 36.2915 21.8279H25.0415C24.0059 21.8279 23.1665 22.6673 23.1665 23.7029V49.9529Z" fill="#FFCA62"/>
</svg>
