<svg width="60" height="61" viewBox="0 0 60 61" fill="none" xmlns="http://www.w3.org/2000/svg">
<path fill-rule="evenodd" clip-rule="evenodd" d="M30 17.1404C31.0355 17.1404 31.875 17.9798 31.875 19.0154V32.1404C31.875 33.1759 31.0355 34.0154 30 34.0154C28.9645 34.0154 28.125 33.1759 28.125 32.1404V19.0154C28.125 17.9798 28.9645 17.1404 30 17.1404Z" fill="#FFCA62"/>
<path fill-rule="evenodd" clip-rule="evenodd" d="M20.0218 6.17583C20.4768 5.98738 20.9644 5.89038 21.4568 5.89038H38.5432C39.0356 5.89038 39.5232 5.98738 39.9782 6.17583C40.4332 6.36429 40.8466 6.64052 41.1948 6.98873L53.2766 19.0706C53.6249 19.4188 53.9011 19.8322 54.0895 20.2872C54.278 20.7421 54.375 21.2298 54.375 21.7222V38.8085C54.375 39.301 54.278 39.7886 54.0895 40.2436C53.9011 40.6986 53.6249 41.112 53.2766 41.4602L41.1948 53.542C40.8466 53.8902 40.4332 54.1665 39.9782 54.3549C39.5232 54.5434 39.0356 54.6404 38.5432 54.6404H21.4568C20.9644 54.6404 20.4768 54.5434 20.0218 54.3549C19.5668 54.1665 19.1534 53.8902 18.8052 53.542L6.72335 41.4602C6.37514 41.112 6.09891 40.6986 5.91045 40.2436C5.72199 39.7886 5.625 39.301 5.625 38.8085V21.7222C5.625 21.2298 5.722 20.7421 5.91045 20.2872C6.09891 19.8322 6.37513 19.4188 6.72335 19.0706L18.8052 6.98873C19.1534 6.64051 19.5668 6.36429 20.0218 6.17583ZM38.5432 9.64038L21.4568 9.64038L20.131 8.31456L21.4568 9.64038L9.375 21.7222L8.04918 20.3964L9.375 21.7222L9.375 38.8085L21.4568 50.8904L20.131 52.2162L21.4568 50.8904L38.5432 50.8904L50.625 38.8085V21.7222L51.9508 20.3964L50.625 21.7222L38.5432 9.64038Z" fill="#FFCA62"/>
<path d="M30 43.3904C31.5533 43.3904 32.8125 42.1312 32.8125 40.5779C32.8125 39.0246 31.5533 37.7654 30 37.7654C28.4467 37.7654 27.1875 39.0246 27.1875 40.5779C27.1875 42.1312 28.4467 43.3904 30 43.3904Z" fill="#FFCA62"/>
</svg>
