<svg width="25" height="24" viewBox="0 0 25 24" fill="none" xmlns="http://www.w3.org/2000/svg">
<path fill-rule="evenodd" clip-rule="evenodd" d="M11.292 4.46967C11.5849 4.76256 11.5849 5.23744 11.292 5.53033L5.57238 11.25H21.7617C22.1759 11.25 22.5117 11.5858 22.5117 12C22.5117 12.4142 22.1759 12.75 21.7617 12.75H5.57238L11.292 18.4697C11.5849 18.7626 11.5849 19.2374 11.292 19.5303C10.9992 19.8232 10.5243 19.8232 10.2314 19.5303L3.23139 12.5303C3.15948 12.4584 3.10523 12.3755 3.06863 12.2871C3.03196 12.1987 3.01172 12.1017 3.01172 12C3.01172 11.8983 3.03196 11.8013 3.06863 11.7129C3.10523 11.6245 3.15948 11.5416 3.23139 11.4697L10.2314 4.46967C10.5243 4.17678 10.9992 4.17678 11.292 4.46967Z" fill="#161618"/>
</svg>
