<svg width="25" height="24" viewBox="0 0 25 24" fill="none" xmlns="http://www.w3.org/2000/svg">
<path fill-rule="evenodd" clip-rule="evenodd" d="M14.2314 4.46967C14.5243 4.17678 14.9992 4.17678 15.292 4.46967L22.292 11.4697C22.364 11.5416 22.4182 11.6245 22.4548 11.7129C22.4868 11.7901 22.5063 11.8738 22.5107 11.9614C22.5114 11.9742 22.5117 11.9871 22.5117 12C22.5117 12.1017 22.4915 12.1987 22.4548 12.2871C22.4182 12.3755 22.364 12.4584 22.292 12.5303L15.292 19.5303C14.9992 19.8232 14.5243 19.8232 14.2314 19.5303C13.9385 19.2374 13.9385 18.7626 14.2314 18.4697L19.9511 12.75H3.76172C3.34751 12.75 3.01172 12.4142 3.01172 12C3.01172 11.5858 3.34751 11.25 3.76172 11.25H19.9511L14.2314 5.53033C13.9385 5.23744 13.9385 4.76256 14.2314 4.46967Z" fill="#161618"/>
</svg>
