<svg width="25" height="24" viewBox="0 0 25 24" fill="none" xmlns="http://www.w3.org/2000/svg">
<path fill-rule="evenodd" clip-rule="evenodd" d="M16.7617 1.25C17.1759 1.25 17.5117 1.58579 17.5117 2V3.25H19.7617C21.2805 3.25 22.5117 4.48122 22.5117 6V20C22.5117 21.5188 21.2805 22.75 19.7617 22.75H5.76172C4.24294 22.75 3.01172 21.5188 3.01172 20V6C3.01172 4.48122 4.24294 3.25 5.76172 3.25H8.01172V2C8.01172 1.58579 8.34751 1.25 8.76172 1.25C9.17593 1.25 9.51172 1.58579 9.51172 2V3.25H16.0117V2C16.0117 1.58579 16.3475 1.25 16.7617 1.25ZM8.01172 4.75V6C8.01172 6.41421 8.34751 6.75 8.76172 6.75C9.17593 6.75 9.51172 6.41421 9.51172 6V4.75H16.0117V6C16.0117 6.41421 16.3475 6.75 16.7617 6.75C17.1759 6.75 17.5117 6.41421 17.5117 6V4.75H19.7617C20.4521 4.75 21.0117 5.30964 21.0117 6V9.25H4.51172V6C4.51172 5.30964 5.07136 4.75 5.76172 4.75H8.01172ZM21.0117 10.75V20C21.0117 20.6904 20.4521 21.25 19.7617 21.25H5.76172C5.07135 21.25 4.51172 20.6904 4.51172 20V10.75H21.0117Z" fill="#161618"/>
</svg>
