<svg viewBox="0 0 24 24" fill="none" xmlns="http://www.w3.org/2000/svg">
<path fill-rule="evenodd" clip-rule="evenodd" d="M12 22.1C17.302 22.1 21.6 17.802 21.6 12.5C21.6 7.19809 17.302 2.90002 12 2.90002C6.69809 2.90002 2.40002 7.19809 2.40002 12.5C2.40002 17.802 6.69809 22.1 12 22.1ZM16.4486 10.9486C16.9172 10.4799 16.9172 9.72012 16.4486 9.2515C15.9799 8.78287 15.2201 8.78287 14.7515 9.2515L10.8 13.203L9.24855 11.6515C8.77992 11.1829 8.02012 11.1829 7.5515 11.6515C7.08287 12.1201 7.08287 12.8799 7.5515 13.3486L9.9515 15.7486C10.4201 16.2172 11.1799 16.2172 11.6486 15.7486L16.4486 10.9486Z" fill="#232319"/>
</svg>
