<svg width="25" height="24" viewBox="0 0 25 24" fill="none" xmlns="http://www.w3.org/2000/svg">
<path d="M13.5117 6C13.5117 5.58579 13.1759 5.25 12.7617 5.25C12.3475 5.25 12.0117 5.58579 12.0117 6V12C12.0117 12.1989 12.0907 12.3897 12.2314 12.5303L16.2314 16.5303C16.5243 16.8232 16.9992 16.8232 17.292 16.5303C17.5849 16.2374 17.5849 15.7626 17.292 15.4697L13.5117 11.6893V6Z" fill="#161618"/>
<path fill-rule="evenodd" clip-rule="evenodd" d="M12.7617 1.25C6.82466 1.25 2.01172 6.06294 2.01172 12C2.01172 17.9371 6.82466 22.75 12.7617 22.75C18.6988 22.75 23.5117 17.9371 23.5117 12C23.5117 6.06294 18.6988 1.25 12.7617 1.25ZM3.51172 12C3.51172 6.89137 7.65308 2.75 12.7617 2.75C17.8704 2.75 22.0117 6.89137 22.0117 12C22.0117 17.1086 17.8704 21.25 12.7617 21.25C7.65308 21.25 3.51172 17.1086 3.51172 12Z" fill="#161618"/>
</svg>
