<svg width="25" height="24" viewBox="0 0 25 24" fill="none" xmlns="http://www.w3.org/2000/svg">
<path fill-rule="evenodd" clip-rule="evenodd" d="M5.23139 4.09516C5.52428 3.80226 5.99916 3.80226 6.29205 4.09516L12.7617 10.5648L19.2314 4.09516C19.5243 3.80226 19.9992 3.80226 20.292 4.09516C20.5849 4.38805 20.5849 4.86293 20.292 5.15582L13.8224 11.6255L20.292 18.0952C20.5849 18.3881 20.5849 18.8629 20.292 19.1558C19.9992 19.4487 19.5243 19.4487 19.2314 19.1558L12.7617 12.6861L6.29205 19.1558C5.99916 19.4487 5.52428 19.4487 5.23139 19.1558C4.9385 18.8629 4.9385 18.3881 5.23139 18.0952L11.7011 11.6255L5.23139 5.15582C4.9385 4.86293 4.9385 4.38805 5.23139 4.09516Z" fill="#161618"/>
</svg>
