<svg width="200" height="200" viewBox="0 0 200 200" fill="none" xmlns="http://www.w3.org/2000/svg">
<path d="M53.8926 112.312C53.8926 121.729 46.2155 129.698 36.9437 129.698H14.9182V69.5742H36.9437C46.2155 69.5742 53.8926 77.543 53.8926 86.9598V112.312ZM36.9437 55.0851H0V144.183H36.9437C54.1846 144.183 68.8174 129.55 68.8174 112.309V86.9564C68.8174 69.7156 54.1849 55.0827 36.9437 55.0827" fill="black"/>
<path d="M0.027771 22.5135H200V35.3694H0.027771V22.5135Z" fill="black"/>
<path d="M87.433 55.0837H102.354V144.181H87.433V55.0837Z" fill="black"/>
<path d="M123.933 55.0837H138.421C153.986 76.5366 169.662 97.9076 185.068 119.474V55.0837H199.994V144.181H185.506C169.82 122.682 154.011 101.274 138.856 79.3973V144.038H123.934L123.933 55.0837Z" fill="black"/>
<path d="M199.998 177.486H0.0253296V163.918H199.998V177.486Z" fill="black"/>
</svg>
