<svg width="24" height="24" viewBox="0 0 24 24" fill="none" xmlns="http://www.w3.org/2000/svg">
<path fill-rule="evenodd" clip-rule="evenodd" d="M4.5 3.40002C4.5 3.12388 4.72386 2.90002 5 2.90002H14.7858C14.9184 2.90002 15.0456 2.9527 15.1393 3.04647L19.3536 7.26068C19.4473 7.35445 19.5 7.48163 19.5 7.61424V20.6C19.5 20.8762 19.2761 21.1 19 21.1H5C4.72386 21.1 4.5 20.8762 4.5 20.6V3.40002ZM5 1.90002C4.17157 1.90002 3.5 2.5716 3.5 3.40002V20.6C3.5 21.4285 4.17157 22.1 5 22.1H19C19.8284 22.1 20.5 21.4285 20.5 20.6V7.61424C20.5 7.21641 20.342 6.83488 20.0607 6.55358L15.8464 2.33936C15.5651 2.05806 15.1836 1.90002 14.7858 1.90002H5ZM7.2 6.70002C6.92386 6.70002 6.7 6.92388 6.7 7.20002C6.7 7.47617 6.92386 7.70002 7.2 7.70002H12C12.2761 7.70002 12.5 7.47617 12.5 7.20002C12.5 6.92388 12.2761 6.70002 12 6.70002H7.2ZM7.2 11.5C6.92386 11.5 6.7 11.7239 6.7 12C6.7 12.2762 6.92386 12.5 7.2 12.5H16.8C17.0761 12.5 17.3 12.2762 17.3 12C17.3 11.7239 17.0761 11.5 16.8 11.5H7.2ZM7.2 16.3C6.92386 16.3 6.7 16.5239 6.7 16.8C6.7 17.0762 6.92386 17.3 7.2 17.3H16.8C17.0761 17.3 17.3 17.0762 17.3 16.8C17.3 16.5239 17.0761 16.3 16.8 16.3H7.2Z" fill="#565676"/>
</svg>
