<svg width="200" height="200" viewBox="0 0 200 200" fill="none" xmlns="http://www.w3.org/2000/svg">
<g clip-path="url(#clip0_678_3052)">
<path fill-rule="evenodd" clip-rule="evenodd" d="M100 48.168L12.7119 89.7662L100 131.364L187.288 89.7662L100 48.168ZM100 42.11L-3.05176e-05 89.7662L100 137.422L200 89.7662L100 42.11Z" fill="black"/>
<path d="M90.7213 73.36V79.3808H77.8828V86.2428H87.7995V91.998H77.8828V104.659H70.3125V73.36H90.7213Z" fill="black"/>
<path d="M129.805 73.5813V104.659H122.235V85.2246L115.505 104.659H108.953L102.18 85.1803V104.659H94.6096V73.5813H103.862L112.318 95.2298L120.597 73.5813H129.805Z" fill="black"/>
<path d="M50.0638 155.123H44.5078L43.6445 157.735H39.0625L44.7955 142.13H49.8203L55.5312 157.735H50.9271L50.0638 155.123ZM48.9791 151.847L47.2968 146.756L45.5924 151.847H48.9791Z" fill="black"/>
<path d="M61.1747 152.489V157.735H56.814V142.063H63.3219C65.2107 142.063 66.6495 142.543 67.6383 143.502C68.6417 144.446 69.1435 145.716 69.1435 147.309C69.1435 148.298 68.9221 149.183 68.4794 149.966C68.0367 150.748 67.3726 151.367 66.4872 151.825C65.6166 152.268 64.5614 152.489 63.3219 152.489H61.1747ZM62.8349 149.058C64.104 149.058 64.7385 148.475 64.7385 147.309C64.7385 146.158 64.104 145.583 62.8349 145.583H61.1747V149.058H62.8349Z" fill="black"/>
<path d="M75.2039 152.489V157.735H70.8432V142.063H77.351C79.2399 142.063 80.6787 142.543 81.6674 143.502C82.6709 144.446 83.1726 145.716 83.1726 147.309C83.1726 148.298 82.9513 149.183 82.5086 149.966C82.0659 150.748 81.4018 151.367 80.5164 151.825C79.6457 152.268 78.5906 152.489 77.351 152.489H75.2039ZM76.8641 149.058C78.1332 149.058 78.7677 148.475 78.7677 147.309C78.7677 146.158 78.1332 145.583 76.8641 145.583H75.2039V149.058H76.8641Z" fill="black"/>
<path d="M92.8412 157.735L89.6758 151.958H89.2331V157.735H84.8724V142.063H91.7565C93.0109 142.063 94.0734 142.285 94.944 142.727C95.8294 143.155 96.4935 143.753 96.9362 144.52C97.3789 145.288 97.6003 146.151 97.6003 147.11C97.6003 148.202 97.2978 149.154 96.6927 149.966C96.0877 150.762 95.217 151.323 94.0807 151.648L97.6445 157.735H92.8412ZM89.2331 149.036H91.3802C92.5903 149.036 93.1953 148.49 93.1953 147.398C93.1953 146.881 93.0404 146.476 92.7305 146.18C92.4353 145.885 91.9853 145.738 91.3802 145.738H89.2331V149.036Z" fill="black"/>
<path d="M106.882 141.82C108.358 141.82 109.701 142.166 110.911 142.86C112.136 143.539 113.095 144.491 113.788 145.716C114.497 146.94 114.851 148.32 114.851 149.855C114.851 151.39 114.497 152.769 113.788 153.994C113.08 155.219 112.113 156.178 110.889 156.872C109.679 157.551 108.343 157.89 106.882 157.89C105.421 157.89 104.078 157.551 102.853 156.872C101.629 156.178 100.662 155.219 99.9537 153.994C99.2454 152.769 98.8912 151.39 98.8912 149.855C98.8912 148.32 99.2454 146.94 99.9537 145.716C100.662 144.491 101.629 143.539 102.853 142.86C104.078 142.166 105.421 141.82 106.882 141.82ZM106.882 145.848C105.775 145.848 104.905 146.21 104.27 146.933C103.636 147.641 103.318 148.615 103.318 149.855C103.318 151.065 103.636 152.031 104.27 152.755C104.905 153.478 105.775 153.839 106.882 153.839C107.974 153.839 108.837 153.478 109.472 152.755C110.106 152.031 110.424 151.065 110.424 149.855C110.424 148.615 110.106 147.641 109.472 146.933C108.852 146.21 107.989 145.848 106.882 145.848Z" fill="black"/>
<path d="M120.32 142.063L123.861 153.352L127.381 142.063H132.007L126.65 157.735H121.05L115.693 142.063H120.32Z" fill="black"/>
<path d="M137.654 145.538V148.128H142.723V151.426H137.654V154.26H143.387V157.735H133.294V142.063H143.387V145.538H137.654Z" fill="black"/>
<path d="M159.765 149.855C159.765 151.375 159.433 152.732 158.769 153.928C158.105 155.108 157.161 156.038 155.936 156.717C154.711 157.396 153.272 157.735 151.62 157.735H145.377V142.063H151.62C153.272 142.063 154.711 142.395 155.936 143.059C157.176 143.709 158.12 144.624 158.769 145.804C159.433 146.985 159.765 148.335 159.765 149.855ZM151.221 153.839C152.505 153.839 153.516 153.492 154.254 152.799C154.991 152.105 155.36 151.124 155.36 149.855C155.36 148.601 154.991 147.627 154.254 146.933C153.516 146.225 152.505 145.87 151.221 145.87H149.738V153.839H151.221Z" fill="black"/>
</g>
<defs>
<clipPath id="clip0_678_3052">
<rect width="200" height="200" fill="white"/>
</clipPath>
</defs>
</svg>
