<svg width="108" height="109" viewBox="0 0 108 109" fill="none" xmlns="http://www.w3.org/2000/svg">
<path d="M54 0.5L100.765 27.5V81.5L54 108.5L7.23463 81.5V27.5L54 0.5Z" fill="#E32B30"/>
<path fill-rule="evenodd" clip-rule="evenodd" d="M39.7305 60.1682H34.2085L34.3551 60.5103V60.8523L35.137 64.4695L36.5053 67.8404L38.4111 70.8712L40.8056 73.5101L43.5912 75.757L46.7676 77.5162L50.286 78.6891L51.1657 78.9334L52.0452 79.08L53.9022 79.4231H57.4207L58.2026 79.2755L58.9845 79.1777L60.4994 78.8357L63.8224 77.7117L66.8522 76.1968L69.5399 74.2421L69.7842 73.9489H56.7366L53.6091 73.9L50.4815 73.167L47.5006 71.8476L44.7639 69.7951L42.8582 67.7427L41.4409 65.4459L40.3658 62.9546L39.7305 60.1682ZM77.1633 41.9893H54.2443L57.8605 42.1359L61.5256 43.1622L64.6043 44.7748L67.1454 46.9739L69.1979 49.6127L70.615 52.6425L71.4458 55.8678L71.5435 59.2397L70.9082 62.6116L69.5888 65.788L67.6829 68.4757L65.3861 70.6748L62.6984 72.3362L59.7663 73.4113L56.7366 73.9489H69.7842L71.8367 71.9453L73.7426 69.3553L75.2086 66.521L76.2348 63.4912L76.8213 60.3636L76.9678 57.1384L76.5769 53.9141L75.6973 50.7367L74.2801 47.6091L72.3254 44.6771L72.2276 44.5793L72.081 44.335L71.9833 44.2382L72.3254 43.7975L72.6675 43.4065L73.0584 43.0644L73.4005 42.6735H76.5769L76.919 42.3314L77.1633 41.9893ZM36.8474 48.6842L36.0167 48.9286L35.2836 49.7104L34.1597 51.6652L31.9606 55.5257L30.8366 57.4804L30.4946 58.5565L30.7389 59.3863L31.3742 59.9727L33.0357 60.2659L33.6221 60.1682H41.2455L42.3695 59.9727L43.0536 59.3863L43.249 58.5565L42.9069 57.4804L41.783 55.5257L40.6591 53.6199L39.5839 51.714L38.46 49.857L37.727 48.9774L36.8474 48.6842ZM41.2455 60.1682H40.3169L40.8056 60.2659L41.2455 60.1682ZM58.4959 33.6828H52.8761V34.366L52.9249 35.0501V35.7343L52.8761 36.3695V36.6139L52.3874 36.8094L51.7521 37.0048L50.3837 37.2492L49.6996 37.3958L48.1358 37.9333L46.572 38.5686L45.0572 39.3505L43.5912 40.2301L42.9559 40.8165L42.5649 41.5495L42.4183 42.3803L42.5649 43.2599L42.8582 44.0418L43.3468 44.6282L44.0798 45.0192L44.9106 45.1657L45.4481 45.068L45.9856 44.8726L46.572 44.6771L47.1096 44.4327L50.677 42.7712L54.2443 41.9893H77.1633L77.31 41.745H69.5399L67.0965 39.9858L64.4577 38.5686L61.5744 37.4935L58.4959 36.8094V33.6828ZM76.5769 42.6735H73.4005L74.5244 43.5042L75.3063 43.6997L75.9904 43.3586L76.5769 42.6735ZM72.0322 36.0763L71.4946 36.2229L70.9082 36.6139L70.0286 37.689L69.7355 38.4709L70.0775 39.3016L71.0549 40.5722L70.1263 41.3052L69.5399 41.745H77.31L77.3588 41.6961L77.5054 41.1097L77.3588 40.5722L76.919 39.9858L75.0131 38.2754L74.0846 37.3958L73.1562 36.6139L72.5697 36.2229L72.0322 36.0763ZM61.1836 29.5769H50.286L49.3575 30.2611V32.0203L49.5041 32.7533L49.7974 33.2909L50.2371 33.5841L50.9701 33.6828H60.5971L61.3301 33.5841L61.8188 33.2909L62.112 32.7533L62.2587 32.0203L62.2097 31.2384L62.112 30.5543L61.8188 30.0167L61.1836 29.5769Z" fill="white"/>
<path d="M61.7746 66.6541C62.5003 67.3754 63.6407 66.4185 63.0564 65.5785L59.6023 60.6138C60.7079 58.9142 60.6296 56.6259 59.2587 54.992C57.5786 52.9898 54.5936 52.7287 52.5914 54.4087C50.5893 56.0887 50.3281 59.0738 52.0081 61.0759C53.3792 62.7099 55.6193 63.1843 57.4851 62.3905L61.7746 66.6541Z" fill="white"/>
</svg>
