<svg width="108" height="108" viewBox="0 0 108 108" fill="none" xmlns="http://www.w3.org/2000/svg">
<path d="M54 0L100.765 27V81L54 108L7.23463 81V27L54 0Z" fill="#E32B30"/>
<path fill-rule="evenodd" clip-rule="evenodd" d="M50.7756 37.6289H46.0832V39.2905L43.7385 40.4634L42.1737 41.8805L40.952 43.4932L40.219 45.3502L39.9746 47.5004L40.0724 55.7104V63.9204L39.9746 72.1303V77.1638L40.1222 77.8968L40.4633 78.4344L41.0019 78.7765L41.7339 78.9231H54.733L55.466 78.8253L56.0036 78.5321L56.3457 78.0923L56.4923 77.4081V47.3538L56.1013 44.8127L54.9773 42.5647L53.2669 40.7566L51.019 39.5348L50.7756 39.2905V37.6289ZM45.9366 29.0769L44.8126 29.1258L43.7385 29.5167L42.7611 30.2498L42.076 31.1783L41.685 32.3023V33.4262L42.076 34.5014L42.809 35.5276H42.6624L41.5384 36.114L40.5122 36.8959L39.4859 37.7267L38.5574 38.7041L38.0687 39.2416L37.6778 39.828L37.3357 40.4634L37.0425 41.1475L36.9448 41.8317L37.0923 42.4181L37.4833 42.8579L38.1176 43.1511L38.8018 43.2489L39.2905 42.809L39.6325 42.3204L40.1222 41.6851L40.6588 41.0498L41.1475 40.4145L41.7339 39.8769L42.6624 39.095L43.7385 38.5086L44.8615 38.0199L46.0832 37.6289H50.7756V37.3846H71.0552V34.4525H45.3502L44.7149 34.3548L44.2751 34.0615L43.933 33.524L43.8353 32.8398L43.9819 32.1557L44.3239 31.6181L44.7647 31.2271L45.3502 31.0805H48.6733L48.6244 30.9828L47.9891 30.0543L47.0606 29.419L45.9366 29.0769ZM71.0552 37.3846H56.6389V38.7041H56.8832L57.6651 38.8018L59.1801 39.0461L59.9131 39.1439L61.9167 39.486L67.8797 40.3167L68.6606 40.4634L69.4914 40.61L71.0552 40.8054V37.3846ZM48.6733 31.0805H45.3502L46.0344 31.2271L46.6208 31.6181L46.9629 32.2045L47.1095 32.8398L46.9629 33.4751L46.6208 34.0615L46.0344 34.4036L45.3502 34.4525H71.0552V34.257H50.7756V32.1068H49.0153L48.6733 31.0805ZM71.0552 30.8362L56.6389 32.9375V34.257H71.0552V30.8362Z" fill="white"/>
</svg>
