<svg width="108" height="109" viewBox="0 0 108 109" fill="none" xmlns="http://www.w3.org/2000/svg">
<path d="M54 0.5L100.765 27.5V81.5L54 108.5L7.23463 81.5V27.5L54 0.5Z" fill="#E32B30"/>
<path fill-rule="evenodd" clip-rule="evenodd" d="M47.4293 32.4555L37.4111 32.585L34.1724 33.276L31.5815 35.0032L29.811 37.6374L29.1201 40.876L29.0769 44.2442V64.6262L29.1201 68.0367L29.811 71.3626L31.5815 73.9967L34.2156 75.7672L37.5406 76.4149L40.8657 76.5013L47.5157 76.5445L64.0544 76.4149L66.8613 75.9831L69.3227 74.774L71.05 73.0458H45.3134L38.6634 73.0035L35.8565 72.6581L33.9565 71.5785L32.877 69.6785L32.5315 66.8717V63.373L32.4883 59.8762V49.3397L32.5315 45.8411V42.3442L32.877 39.4078L33.9997 37.4646L35.8997 36.3419L38.7497 35.9964L63.7522 35.9101L64.7454 35.7805L65.7817 35.4351L66.8181 35.0464L67.8977 34.6578L67.7681 34.226V33.8365L67.6818 33.4046L65.9545 32.8873L65.0908 32.6714L64.1408 32.585L47.4293 32.4555ZM71.0932 61.0853L70.6613 62.2512L70.1863 63.4171L69.7545 64.6262L69.5386 65.8353L69.0204 69.333L67.7681 71.5353L65.5226 72.6581L61.9817 73.0035L52.0067 73.0458H71.05L71.1363 72.9172L72.1295 70.4981L72.3886 68.2967V65.8353L72.3023 63.7185L72.259 61.3867L71.8272 61.3012L71.525 61.1716L71.0932 61.0853Z" fill="white"/>
<path fill-rule="evenodd" clip-rule="evenodd" d="M77.2847 37.8884C75.1002 35.7039 71.5584 35.7038 69.3738 37.8884L48.1023 59.1599C46.7744 63.5977 46.6046 66.6745 46.6021 67.9271C46.6013 68.2958 46.8734 68.592 47.2413 68.6175C48.5914 68.7111 51.9926 68.7252 56.0131 67.0707L77.2847 45.7992C79.4692 43.6147 79.4692 40.0729 77.2847 37.8884ZM55.1664 65.9931C54.5985 62.953 52.2202 60.5747 49.1801 60.0068C49.1801 60.0068 52.6959 62.4076 52.1929 64.4392C51.8827 65.6922 48.0573 67.1159 48.0573 67.1159C48.0573 67.1159 51.2169 67.6182 55.1664 65.9931Z" fill="white"/>
</svg>
