<svg width="108" height="109" viewBox="0 0 108 109" fill="none" xmlns="http://www.w3.org/2000/svg">
<path d="M54 0.5L100.765 27.5V81.5L54 108.5L7.23463 81.5V27.5L54 0.5Z" fill="#E32B30"/>
<path fill-rule="evenodd" clip-rule="evenodd" d="M53.9756 29.5769L52.4622 33.5802L50.5093 37.3394L48.3612 40.8545L46.0178 44.2232L42.4051 49.3005L40.6963 51.9369L39.2317 54.7685L37.8159 58.5277L37.1324 62.3357L37.2789 66.1926L38.4994 70.0983L40.0128 72.6858L42.161 74.9315L44.7484 76.8346L47.6777 78.2514L50.9487 79.1301L54.3662 79.4231L57.8813 78.9827L61.3476 77.7133L64.6674 75.7615L67.3037 73.4181L68.3778 71.8558H49.5329L46.8966 70.8794L44.8461 69.3162L43.2838 67.2667L42.2586 64.728L41.9657 61.0664L42.698 57.3072L44.3579 53.9864L46.8478 51.35H66.9132L66.669 50.9117L64.765 48.08L60.7129 42.3182L58.7601 39.3899L56.9537 36.3142L55.3426 33.0432L53.9756 29.5769ZM66.9132 51.35H46.8478L46.7501 52.2288L46.6037 53.0598L46.506 53.8897V54.7685L46.3596 58.2348L46.6525 61.6034L47.6777 64.8256L49.6305 67.7549L50.1187 68.2431L50.0211 68.8289V69.2683L49.8746 69.903L49.777 70.5376L49.6305 71.1723L49.5329 71.8558H68.3778L69.2077 70.6832L70.4282 67.5586L70.8676 64.1421L70.6235 60.3829L69.7448 57.0133L68.329 53.8897L66.9132 51.35Z" fill="white"/>
</svg>
