<svg width="108" height="108" viewBox="0 0 108 108" fill="none" xmlns="http://www.w3.org/2000/svg">
<path d="M54 0L100.765 27V81L54 108L7.23463 81V27L54 0Z" fill="#E32B30"/>
<path fill-rule="evenodd" clip-rule="evenodd" d="M39.0368 35.8406H38.8051L38.5735 35.9323L38.3419 36.3965V36.5818L38.4345 37.462L38.5272 38.2959L38.6662 39.1297L38.8978 39.9173L40.1023 41.724L41.77 42.9285L43.6693 43.6233L45.7076 43.8077H46.1246L46.5878 43.9476L46.8195 44.1792L48.0239 45.3365L50.3402 47.7463L64.2842 62.0609L64.7011 62.5242L64.9327 63.0801L64.8401 63.7286L64.8864 65.4881L65.3497 67.0641L66.2299 68.5001L67.6196 69.7509L68.5462 70.3068L69.6116 70.7238L70.6771 71.0017L71.8353 71.048H72.0669L72.4838 70.8628L72.6228 70.4912L72.7155 70.3995L72.4838 70.0752L72.3912 69.8436L71.9742 69.3803L71.1867 68.5928L70.8161 68.1759L70.4455 67.6663L70.3528 67.2494L70.4918 66.8324L70.9551 66.4155L71.6963 65.6743L72.5301 64.9794L73.3177 64.2836L74.5685 63.3117L74.9854 63.219H78.7378L78.6451 62.6159L78.0892 61.2734L77.2554 60.1143L76.1435 59.0497L75.078 58.3549L73.9199 57.8916L72.6691 57.6127H70.8161L70.4918 57.521L70.0285 57.1495L67.8513 54.8341L63.4503 50.2479L61.273 47.9316L54.7875 41.446L52.7028 39.2678L52.4712 38.9444L52.2396 38.4812L52.3322 38.1569H42.1406L41.6773 38.0179L40.8434 37.3694L40.4265 36.9524L40.0096 36.5818L39.3611 35.9323L39.0368 35.8406ZM78.7378 63.219H74.9854L75.4023 63.3117L75.8192 63.636L76.9311 64.7478L77.2554 65.0257L77.5333 65.35L77.8576 65.5816L78.2745 65.4881L78.7378 65.3037V64.6088L78.9231 64.1909L78.7378 63.219ZM45.2444 30.3742H44.9201L44.5958 30.6058L44.4569 30.8375L44.3642 30.9292L44.4569 31.2544L44.5958 31.486L45.4297 32.4125L46.8195 33.8014V34.3582L46.3562 34.8215L43.8083 37.0914L42.9281 37.8326L42.5575 38.0643L42.1406 38.1569H52.3322L52.3785 38.0643V36.9524L52.2396 35.887L51.9616 34.8678L51.4983 33.9413L50.3402 32.4125L48.9041 31.2998L47.1901 30.6522L45.2444 30.3742Z" fill="white"/>
<path fill-rule="evenodd" clip-rule="evenodd" d="M54.8339 72.0667H35.7015L36.5817 72.7152L37.1375 73.1785L37.6008 73.2711L38.5273 73.6417L39.0832 74.1977L39.3612 74.9389V75.8654L39.4538 76.6066L39.7781 77.1625L40.3803 77.4868L41.1215 77.6257H45.0129L45.7078 77.5331L46.2174 77.2551L46.588 76.8382L46.8196 76.1896V74.2903L46.9122 73.966L47.4682 73.7344L47.9777 73.5491L48.4873 73.3175L48.9506 73.0395L49.3675 72.7152L50.0161 72.3446L50.6646 72.252H54.6949L54.8339 72.0667ZM33.3852 54.2313H32.644L31.9954 54.4629L31.4858 54.9262L30.9762 55.8527L30.4667 56.7329L29.3548 58.4933L29.1232 59.0955L29.1696 59.6514L29.4475 60.161L29.9108 60.6242L30.374 60.9485L30.791 61.0412L31.2542 61.4118L31.6711 61.8287V62.6163L31.4858 63.1721L31.5785 63.7281L31.6711 64.7935L31.3932 65.5811L30.8373 66.2297L29.9108 66.7392L29.4475 67.0635L29.1696 67.6194L29.0769 68.1753L29.2622 68.7312L29.8181 69.7041L31.0226 71.6497L32.0417 73.1785L32.5976 73.2711L33.2462 73.0858L33.8021 72.9469L34.358 72.6226L34.9139 72.3909L35.3772 72.0667H54.8339L55.2045 71.3255L55.6214 70.6306H43.0209L40.1024 70.0747L37.8324 68.5922L36.35 66.4149L35.7941 63.7281L36.35 60.9949L37.9251 58.7712L40.2414 57.2888L43.1599 56.7329H55.6678L55.6214 56.6866L55.2045 55.8991L54.8339 55.3895H50.3867L50.0161 55.1115H35.4698L34.7749 54.9262L34.0337 54.5093L33.3852 54.2313ZM54.6949 72.252H50.6646L51.2668 72.3909L51.9154 72.7152V72.8542L52.7493 73.1321H53.5831L54.278 72.7615L54.6949 72.252ZM55.6678 56.7329H43.1599L45.8931 57.2888L48.2094 58.7712L49.7381 60.9949L50.2477 63.7281L49.6454 66.4613L48.0704 68.6849L45.7541 70.121L43.0209 70.6306H55.6214L56.0847 69.8894L56.5943 69.1945L56.8722 68.4533V67.7584L56.5943 67.1562L55.9457 66.6003L55.2508 66.1833L54.9266 66.0443L54.4633 65.8591L54.3706 65.4884V64.6083L54.417 64.006V63.4501L54.3706 62.9405V62.1993L54.556 61.6434L54.9729 61.2265L55.5751 60.9485H55.7141L55.8068 60.8559L56.548 60.3L56.9186 59.6514L56.8722 58.9565L56.5016 58.169L56.0847 57.4278L55.6678 56.7329ZM52.8882 54.185L52.286 54.3703L51.7764 54.6946L51.2668 55.0652L50.7109 55.2968L50.3867 55.3895H54.8339L54.6949 55.1578L54.4633 54.7409L53.9074 54.5093L53.5831 54.2777L52.8882 54.185ZM45.1519 49.7377H40.9362L40.2877 49.8767L39.7781 50.2473L39.4538 50.7106L39.2685 51.2665V51.8224L39.3612 52.3783L39.2685 52.8416V53.1658L38.8979 53.3975L38.7126 53.6291L37.7861 53.9997L37.3692 54.2313L36.9059 54.5093L36.1647 54.9725L35.4698 55.1115H50.0161L49.8307 54.9262L49.4602 54.6483L48.9969 54.3703L48.5336 54.1387L48.024 53.9534L47.3755 53.6291L46.9586 53.2122L46.7733 52.6563L46.8196 51.9614V51.4055L46.6343 50.7569L46.31 50.201L45.8004 49.8304L45.1519 49.7377Z" fill="white"/>
</svg>
