<svg width="108" height="108" viewBox="0 0 108 108" fill="none" xmlns="http://www.w3.org/2000/svg">
<path d="M54 0L100.765 27V81L54 108L7.23463 81V27L54 0Z" fill="#E32B30"/>
<path fill-rule="evenodd" clip-rule="evenodd" d="M47.829 45.8677H44.5761L44.7196 45.9634V46.2982L44.6718 46.8244V48.0204L44.7196 48.5944V48.9771L44.4804 49.0728H29.0769V52.1822H29.3161V52.517L29.7945 53.9043L30.4642 55.1481L31.3252 56.2961L32.4255 57.2051L32.7604 57.4442L32.9039 57.6834V58.0183L33.5736 61.7496L34.2911 65.72L35.0565 70.121L35.5827 72.9434L36.2046 76.7225L36.396 77.2966L36.683 77.6793L37.0657 78.0141L37.5919 78.2533L38.74 78.4447L39.314 78.349L47.3506 76.6747L50.1252 76.1485L50.46 76.0528L50.8906 75.8136L51.2733 75.5744L51.656 75.1439H39.4097L39.314 74.9047L39.2183 74.5699L38.6443 71.5561L37.9267 67.6335L37.5441 65.6722L37.0179 62.7541L36.8265 61.8931L36.4916 60.2188L36.3013 59.3577L36.2046 58.8315H60.0753L58.7837 58.3531L55.2916 57.2051L53.5226 56.7267L51.7516 56.2961L50.0295 55.9135L48.2605 55.6264H47.9247L47.829 55.4829V45.8677ZM60.0753 58.8315H42.0886L42.1842 58.9272L42.2799 59.4055L42.6148 61.5104L43.0453 63.6152L43.6194 65.6722L44.3847 67.6813L44.7675 68.5424L45.2458 69.3556L45.8677 70.0732L46.6809 70.6472L47.1114 70.9821L47.6855 72.0345L47.9247 72.6086L48.1639 72.8478H47.829L47.6855 72.9434L45.3893 73.5175L44.5761 73.7566L43.428 74.0437L42.2321 74.3307L39.8881 75.0004L39.4097 75.1439H51.656L51.8473 74.6656L51.8951 74.0915L51.7038 73.5175L50.5557 71.317L49.886 70.2167L49.1684 69.1643L48.9771 68.9251L48.7389 68.5902L48.4987 68.3511L47.9725 67.8727L47.5898 67.2986L47.255 66.6768L47.0158 66.0549L45.9634 62.6106V62.1801L46.1069 62.0366H47.829V59.3099L47.9247 59.1664H60.9842L60.0753 58.8315ZM60.9842 59.1664H48.2605L49.6468 59.3577L50.9384 59.5969L52.2778 59.8839L53.5694 60.2188L57.2051 61.2712L60.8407 62.5149L64.3806 63.9979L67.777 65.72L68.0162 65.9592L68.7816 66.3419L69.3078 66.916L69.5948 67.6335L69.6427 68.5902L69.6905 69.6427L70.0732 70.5037L70.7439 71.2213L71.5562 71.6997L72.6085 71.8432L73.6131 71.7475L74.4742 71.317L75.1439 70.6472L75.4788 70.121L75.6701 69.547L75.8146 68.9729V63.089H69.4991L68.9251 62.7541L65.6244 61.0798L62.2279 59.6447L60.9842 59.1664ZM75.8146 38.4051H69.4991V63.089H75.8146V56.2961L75.7179 55.7221L75.9571 55.3873L76.293 55.1481L77.0574 54.5262L77.7271 53.9043L78.3012 53.1389L78.6839 52.2779V52.1822H78.9231V49.4076H78.8274L78.6839 49.312V49.1685L78.2543 48.3074L77.7271 47.5898L77.0574 46.9201L76.3877 46.2982L75.9571 46.1069L75.7179 45.6285L75.8146 45.0545V38.4051ZM46.8723 62.0366H46.4417L46.6809 62.1801L46.8723 62.0366ZM41.371 42.5191H37.1135L35.3914 42.7105L33.765 43.2845L32.282 44.1934L30.9426 45.3893L30.4164 46.2026L29.9858 47.0158L29.6031 47.8768L29.3161 48.7379V49.0728H35.3914L35.2957 48.9771V45.9634L35.3914 45.8677H47.829L48.0204 45.7242H48.2605L49.5512 45.5328L50.8427 45.2936L52.1343 45.0066L55.4351 44.1934L57.3964 43.6193L59.3577 42.9496L60.3623 42.5669H44.2891L41.371 42.5191ZM73.9958 29.7945H71.2213L70.5516 30.2729L70.0254 30.8947L69.7383 31.6601L69.6427 32.5212L69.4991 32.9995V33.9085L69.6427 34.2433L69.4991 34.4825L69.1643 34.626L68.3511 34.9609L67.5378 35.3436L66.7246 35.7741L65.9602 36.2046L64.1414 37.0657L62.3236 37.8789L58.5923 39.4097L55.8178 40.4621L52.9954 41.371L50.1252 41.9929L47.255 42.4234L45.772 42.5191L44.2891 42.5669H60.3623L61.3669 42.1842L62.8976 41.5624L65.9602 40.2229L67.4422 39.5532L68.0162 39.2183L68.4946 38.8357L69.0686 38.6443L69.4991 38.4051H75.8146V32.9995L75.7658 32.4255L75.6223 31.7558L75.3831 31.1339L75.0004 30.6077L74.6656 30.225L73.9958 29.7945ZM73.661 29.5553H71.5562V29.7945H73.661V29.5553Z" fill="white"/>
</svg>
