<svg width="200" height="200" viewBox="0 0 200 200" fill="none" xmlns="http://www.w3.org/2000/svg">
<path fill-rule="evenodd" clip-rule="evenodd" d="M42.0137 66.5555H64.2769V100.283C64.2769 110.787 67.0779 118.684 72.6797 123.974C78.2815 129.187 86.4508 131.793 97.1877 131.793C107.924 131.793 116.094 129.187 121.696 123.974C127.297 118.684 130.098 110.787 130.098 100.283V67.3569L153.201 130.626H171.991L200 53.6013H183.428L167.089 102.734L162.771 117.789L158.336 102.617L142.114 53.6013H130.098H125.076H113.876V99.583C113.876 106.041 112.515 110.826 109.792 113.938C107.069 117.05 102.867 118.606 97.1877 118.606C91.508 118.606 87.2678 117.05 84.4668 113.938C81.7437 110.826 80.3822 106.041 80.3822 99.583V53.6013H67.8054H64.2769H0V66.5555H25.9084V130.626H42.0137V66.5555Z" fill="black"/>
<path d="M85.19 53.6013H95.8934V68.8331H85.19V53.6013Z" fill="black"/>
<path d="M98.3635 53.6013H109.067V68.8331H98.3635V53.6013Z" fill="black"/>
<path d="M0 140.889H200V146.399H0V140.889Z" fill="black"/>
</svg>
