<svg width="200" height="200" viewBox="0 0 200 200" fill="none" xmlns="http://www.w3.org/2000/svg">
<path fill-rule="evenodd" clip-rule="evenodd" d="M99.9989 0.000640869C155.077 0.000640869 200 44.9222 200 99.9994C200 155.078 155.077 199.999 99.9989 199.999C44.9217 199.999 0 155.077 0 99.9994C0 44.9222 44.9217 0.000640869 99.9989 0.000640869V0.000640869ZM99.9989 18.0323C145.146 18.0323 181.968 54.8537 181.968 99.9994C181.968 145.146 145.146 181.968 99.9989 181.968C54.8531 181.968 18.0328 145.145 18.0328 99.9994C18.0328 54.8537 54.8542 18.0323 99.9989 18.0323V18.0323Z" fill="black"/>
<path fill-rule="evenodd" clip-rule="evenodd" d="M148.04 153.697H108.058V75.1971H127.166V137.705H148.04V153.697V153.697ZM100.399 103.337C100.399 117.648 90.8743 125.441 77.2406 125.441H74.4373C60.9102 125.441 51.0698 118.494 51.0698 103.961V45.6936H70.1791V104.961C70.1791 109.114 71.8404 111.191 75.1631 111.191H76.2019C80.459 111.191 81.2913 107.124 81.2913 103.715V45.6936H100.399V103.337V103.337ZM64.507 141.456C64.507 147.606 69.5088 152.609 75.6581 152.609C81.8706 152.609 86.808 147.606 86.808 141.456C86.808 135.307 81.8695 130.306 75.6581 130.306C69.5088 130.308 64.507 135.307 64.507 141.456ZM66.61 141.456C66.61 136.201 70.6874 131.996 75.6581 131.996C80.6598 131.996 84.705 136.201 84.705 141.456C84.705 146.682 80.6909 150.917 75.6581 150.917C70.6874 150.918 66.61 146.682 66.61 141.456ZM71.5796 146.937H73.6505V142.318H75.3385C77.6967 142.318 77.76 143.369 77.7911 144.387C77.8554 146.236 77.8232 146.49 78.205 146.937H80.3391C79.893 146.332 79.9884 146.013 79.893 144.292C79.8286 143.178 79.7332 141.904 78.3005 141.617V141.552C79.9562 140.884 80.1793 139.768 80.1793 139.003C80.1793 136.105 77.6945 135.787 76.5159 135.787H71.5774V146.937H71.5796V146.937ZM73.6505 137.315H75.8168C77.1552 137.315 78.0785 137.665 78.0785 139.003C78.0785 139.801 77.76 140.788 76.0398 140.788H73.6505V137.315V137.315Z" fill="black"/>
</svg>
