<svg width="25" height="24" viewBox="0 0 25 24" fill="none" xmlns="http://www.w3.org/2000/svg">
<path d="M5.01172 6.62549C5.01172 6.21127 5.34751 5.87549 5.76172 5.87549H19.7617C20.1759 5.87549 20.5117 6.21127 20.5117 6.62549C20.5117 7.0397 20.1759 7.37549 19.7617 7.37549H5.76172C5.34751 7.37549 5.01172 7.0397 5.01172 6.62549Z" fill="#161618"/>
<path d="M5.01172 11.6255C5.01172 11.2113 5.34751 10.8755 5.76172 10.8755H19.7617C20.1759 10.8755 20.5117 11.2113 20.5117 11.6255C20.5117 12.0397 20.1759 12.3755 19.7617 12.3755H5.76172C5.34751 12.3755 5.01172 12.0397 5.01172 11.6255Z" fill="#161618"/>
<path d="M5.76172 15.8755C5.34751 15.8755 5.01172 16.2113 5.01172 16.6255C5.01172 17.0397 5.34751 17.3755 5.76172 17.3755H19.7617C20.1759 17.3755 20.5117 17.0397 20.5117 16.6255C20.5117 16.2113 20.1759 15.8755 19.7617 15.8755H5.76172Z" fill="#161618"/>
</svg>
