<svg width="25" height="24" viewBox="0 0 25 24" fill="none" xmlns="http://www.w3.org/2000/svg">
<path fill-rule="evenodd" clip-rule="evenodd" d="M11.5117 2.75C7.09344 2.75 3.51172 6.33172 3.51172 10.75C3.51172 15.1683 7.09344 18.75 11.5117 18.75C15.93 18.75 19.5117 15.1683 19.5117 10.75C19.5117 6.33172 15.93 2.75 11.5117 2.75ZM2.01172 10.75C2.01172 5.5033 6.26502 1.25 11.5117 1.25C16.7584 1.25 21.0117 5.5033 21.0117 10.75C21.0117 13.1034 20.156 15.2569 18.7387 16.9163L23.292 21.4697C23.5849 21.7626 23.5849 22.2374 23.292 22.5303C22.9992 22.8232 22.5243 22.8232 22.2314 22.5303L17.6781 17.977C16.0186 19.3943 13.8651 20.25 11.5117 20.25C6.26502 20.25 2.01172 15.9967 2.01172 10.75Z" fill="#161618"/>
</svg>
