<svg width="88" height="88" viewBox="0 0 88 88" fill="none" xmlns="http://www.w3.org/2000/svg">
<path d="M2.1676 85.6681L8.07574 64.122C4.43996 57.8213 2.51878 50.653 2.51878 43.3402C2.51878 20.4099 21.1935 1.7559 44.1031 1.7559C55.2376 1.7559 65.6699 6.09405 73.5198 13.944C81.3698 21.794 85.6873 32.2469 85.6873 43.3608C85.6873 66.291 67.0126 84.9451 44.1031 84.9451H44.0824C37.1207 84.9451 30.2829 83.1892 24.2095 79.8839L2.1676 85.6681Z" fill="#24B745"/>
<path d="M0.659546 87.1762L6.77427 64.8657C3.01454 58.3378 1.01073 50.9216 1.03139 43.3402C1.03139 19.5837 20.3671 0.268555 44.1237 0.268555C55.6508 0.268555 66.4755 4.75131 74.594 12.8905C82.7332 21.0297 87.216 31.8544 87.1953 43.3608C87.1953 67.1174 67.8596 86.4325 44.103 86.4325H44.0824C36.8728 86.4325 29.7871 84.6146 23.4865 81.1854L0.659546 87.1762ZM24.5607 73.3767L25.8621 74.1617C31.3571 77.4257 37.6578 79.1403 44.0824 79.1609H44.103C63.8313 79.1609 79.9031 63.1098 79.9031 43.3608C79.9031 33.7963 76.1847 24.8101 69.4296 18.0343C62.6744 11.2585 53.6676 7.54012 44.103 7.54012C24.3541 7.54012 8.2823 23.5913 8.2823 43.3402C8.2823 50.0953 10.1622 56.6852 13.7566 62.3867L14.6036 63.7502L10.9885 76.9505L24.5607 73.3767Z" fill="white"/>
<path d="M33.3403 25.3059C32.5346 23.5086 31.6877 23.4673 30.9233 23.4466C30.3036 23.426 29.5806 23.426 28.8575 23.426C28.1345 23.426 26.9777 23.6945 25.9861 24.7688C24.9945 25.843 22.2264 28.4459 22.2264 33.7549C22.2264 39.0433 26.0894 44.1665 26.6265 44.8895C27.1636 45.6125 34.084 56.8297 45.012 61.1472C54.1015 64.7417 55.9607 64.0187 57.9232 63.8328C59.9063 63.6468 64.2858 61.2299 65.1947 58.7096C66.083 56.1894 66.083 54.0409 65.8145 53.5865C65.5459 53.132 64.8229 52.8634 63.7487 52.3263C62.6745 51.7892 57.3861 49.1863 56.3945 48.8145C55.4029 48.4427 54.6799 48.2774 53.9775 49.3516C53.2545 50.4258 51.1887 52.8428 50.569 53.5658C49.9492 54.2888 49.3088 54.3715 48.2346 53.8344C47.1604 53.2973 43.6899 52.1611 39.579 48.484C36.377 45.6332 34.2079 42.1007 33.5882 41.0265C32.9685 39.9523 33.5262 39.3739 34.0633 38.8368C34.5385 38.3616 35.1375 37.5766 35.6746 36.9569C36.2117 36.3372 36.3977 35.8827 36.7488 35.1597C37.1 34.4366 36.9348 33.8169 36.6662 33.2798C36.3977 32.7427 34.2906 27.4336 33.3403 25.3059Z" fill="white"/>
</svg>
