<svg viewBox="0 0 34 14" fill="none" xmlns="http://www.w3.org/2000/svg">
<g clip-path="url(#clip0_102_129)">
<path fill-rule="evenodd" clip-rule="evenodd" d="M17.2718 3.37548L17.2912 3.41866L17.3123 3.4635L17.315 3.47039L17.3325 3.51103L17.3521 3.55459L17.379 3.61886L17.3779 3.61648L17.4019 3.67237L17.4053 3.68026L17.418 3.71239L17.428 3.73597L17.4612 3.82131L17.4562 3.80824L17.4833 3.877L17.4869 3.88652L17.4855 3.88295L17.4924 3.90022L17.498 3.91605L17.5293 4.00258L17.5351 4.01775L17.5287 4.00053L17.5594 4.08431L17.5647 4.10037L17.5636 4.09735L17.5655 4.10244L17.573 4.12329L17.599 4.20234L17.6297 4.29423L17.638 4.32122L17.6721 4.43257L17.6873 4.48286L17.6881 4.48597L17.6945 4.50667L17.7045 4.54279L17.715 4.57827L17.7305 4.63729L17.741 4.67463L17.7443 4.68822L17.744 4.6868L17.7535 4.72154L17.7701 4.78935L17.7648 4.76705L17.7759 4.80998L17.7856 4.85155L17.7897 4.86827L17.7944 4.88878L17.8066 4.93877L17.8185 4.99401L17.8301 5.04433L17.8409 5.09814L17.8539 5.15821L17.8661 5.22361L17.8777 5.28124L17.8855 5.32799L17.8952 5.37983L17.9035 5.4322L17.9079 5.45985L17.9112 5.47967L17.9181 5.52058L17.9229 5.55479L17.9245 5.56714L17.9303 5.60353L17.9345 5.63625C17.9367 5.65266 17.9389 5.66908 17.9411 5.68549L17.9475 5.73476L17.9514 5.76225L17.9544 5.79067L17.9552 5.7985L17.9594 5.8292L17.9624 5.86242C18.5717 5.44219 19.0217 4.80809 19.2041 4.06887V4.06807C19.2634 3.83094 19.2946 3.58305 19.2946 3.32796C19.2946 3.11757 19.2733 2.91205 19.2329 2.71329C20.4494 4.03078 21.2324 5.75469 21.3537 7.65726C21.3537 7.65796 21.3537 7.65862 21.3537 7.65928L21.3528 7.65195C21.3719 7.82721 21.3816 8.00483 21.3816 8.18466C21.3816 8.36917 21.3717 8.55135 21.3512 8.7306C21.3534 8.70007 21.3553 8.66949 21.3573 8.6389L21.3575 8.63187L21.3595 8.59558L21.3581 8.62102L21.3573 8.6389C21.3553 8.66949 21.3534 8.70007 21.3512 8.7306C21.1284 10.7762 19.6381 12.4806 17.703 13.0163C18.7047 12.5248 19.3965 11.4616 19.3887 10.3089C19.3885 10.2016 19.3818 10.0932 19.3694 9.98421C19.3569 9.87795 19.3392 9.77363 19.3159 9.67138L19.3168 9.67565C19.3168 9.67526 19.3168 9.67487 19.3165 9.67448C19.1147 8.55847 18.5343 7.59332 17.7252 6.89803C17.7626 7.0127 17.7892 7.13269 17.8036 7.25702C17.821 7.40776 17.8196 7.55637 17.8008 7.70055V7.70105C17.7438 8.15036 17.521 8.55589 17.1899 8.84588L17.1858 8.82648L17.1813 8.8086L17.1764 8.78745L17.1722 8.77148L17.1653 8.74281C17.1628 8.73323 17.1603 8.72368 17.1578 8.71416L17.1531 8.69509L17.1453 8.6668L17.1404 8.64693L17.1335 8.62321L17.1254 8.59569L17.1171 8.56533L17.108 8.53533L17.1 8.50826L17.0892 8.47499L17.0775 8.43717L17.0659 8.40258L17.0557 8.37149L17.0454 8.34257L17.0346 8.31074L17.0241 8.28203L17.0197 8.27022L17.0161 8.26064L17.0078 8.23672L16.9981 8.21214L17.0028 8.22493L16.9884 8.18602L16.9804 8.16611L16.9807 8.16694L16.9776 8.15914L16.969 8.13777L16.9557 8.10397L16.9472 8.08371L16.9389 8.06307L16.886 7.94197L16.8614 7.88977L16.8406 7.84482L16.8348 7.83302L16.8334 7.83012L16.8342 7.83183L16.8301 7.82273L16.806 7.77531L16.811 7.78506L16.8066 7.77648L16.7778 7.71852L16.7709 7.70542L16.7501 7.66665L16.754 7.67401L16.7285 7.62588L16.721 7.61262L16.7113 7.59449L16.6909 7.5587L16.6914 7.56003L16.6712 7.52388L16.6568 7.49946L16.6435 7.47666L16.6413 7.47278L16.6261 7.44771L16.6117 7.42351L16.5912 7.39116L16.5757 7.36547L16.5752 7.36544L16.5497 7.32484L16.5129 7.26906L16.4916 7.23654L16.4116 7.12214L16.3894 7.09217L16.3504 7.03908L16.3396 7.02499L16.3285 7.01029L16.307 6.98289L16.2796 6.94738L16.2596 6.9228L16.2425 6.90104L16.2256 6.88076L16.2068 6.85753L16.1758 6.82122L16.1533 6.79448L16.1425 6.78214L16.1317 6.76951L16.083 6.71496L16.0614 6.69063L15.9665 6.58957L15.9427 6.5656L15.8948 6.51705L15.8813 6.50388L15.8688 6.49137L15.8447 6.46856L15.8121 6.43684L15.788 6.41458L15.7683 6.39604L15.7495 6.37913L15.7404 6.37071L15.7274 6.35867L15.6903 6.32621L15.6651 6.30368L15.6532 6.29354L15.6407 6.28256L15.5823 6.2337L15.5596 6.21433L15.4514 6.12805L15.4254 6.10848L15.3706 6.06694L15.3548 6.05542L15.3407 6.0449L15.3147 6.02636L15.2773 5.99943L15.2493 5.98025L15.2277 5.96494L15.2073 5.9514L15.1824 5.93413L15.1397 5.90629L15.1123 5.88821L15.0999 5.88038L15.0858 5.87111L15.0855 5.8713C15.0166 5.82718 14.9465 5.78508 14.8754 5.74475L14.6933 5.73816C14.7273 5.85359 14.7539 5.97244 14.773 6.09417L14.7741 6.09343L14.7735 6.0939C14.7805 6.13674 14.7863 6.17992 14.7915 6.22346C14.8757 6.95078 14.6886 7.64746 14.3096 8.21165L14.2554 8.29125L14.1699 8.40482L14.13 8.45265L14.1405 8.4392L14.1026 8.48481L14.1131 8.47285L14.0971 8.49206C13.6295 9.08558 13.3872 9.85686 13.481 10.6661C13.6042 11.7301 14.2778 12.5976 15.1846 13.0163C15.1428 13.0058 15.1013 12.9946 15.0597 12.9829C12.9596 12.3985 11.4172 10.4703 11.4172 8.18466C11.4172 6.81529 11.9708 5.57419 12.8665 4.67355L12.8969 4.64457L12.8771 4.66247L12.9492 4.59366L12.9289 4.61406L13.0046 4.54188L13.1696 4.36883L13.2757 4.2464C14.0173 3.37756 14.4646 2.25041 14.4646 1.01961C14.4646 0.945955 14.463 0.872633 14.4597 0.799782L14.4605 0.79909L14.4588 0.80017C14.4505 0.593213 14.4292 0.389551 14.3943 0.190234L14.6971 0.236431C14.8081 0.31753 14.9172 0.401398 15.0235 0.488393L15.024 0.488144L15.0459 0.506357L15.0653 0.521857L15.1073 0.557314L15.1732 0.612035L15.2117 0.645776L15.243 0.672265L15.2762 0.70202L15.3191 0.739442L15.3761 0.791645L15.4162 0.827627L15.4376 0.847888L15.4619 0.870253L15.5452 0.950162L15.5848 0.987861L15.7489 1.15286L15.7835 1.18964L15.8713 1.2825L15.8901 1.30326L15.9081 1.3225L15.9457 1.36502L16.0011 1.42632L16.034 1.4648L16.0623 1.49666L16.0913 1.53142L16.1273 1.57325L16.176 1.63256L16.2117 1.67527L16.23 1.6986L16.2502 1.72321L16.3208 1.81353L16.3559 1.85817L16.4949 2.04528L16.5262 2.09004L16.597 2.19063L16.6125 2.21377L16.6286 2.23649L16.6607 2.28543L16.7053 2.35205L16.7324 2.39451L16.7567 2.43168L16.7811 2.47129L16.8096 2.51621L16.8486 2.58082L16.8794 2.63075L16.8946 2.65738L16.9101 2.68304L16.9649 2.77922L16.9964 2.83355L17.1074 3.04004L17.1368 3.09844L17.1877 3.19872L17.2223 3.27146L17.2231 3.27158L17.2444 3.31749L17.2718 3.37548ZM19.3854 10.2464L19.3857 10.2501L19.3843 10.2285L19.3854 10.2464ZM19.3854 10.2447V10.2476L19.3851 10.2389L19.3854 10.2447ZM19.3743 10.0981L19.371 10.0632L19.3738 10.0935L19.3743 10.0981L19.3749 10.1042L19.3768 10.1247L19.3743 10.0981ZM21.3581 8.62102L21.3589 8.60878L21.3581 8.62274L21.3567 8.64582L21.3573 8.6389L21.3575 8.63187L21.3581 8.62102ZM21.3678 8.38616L21.3667 8.42073C21.3672 8.40919 21.3675 8.39768 21.3678 8.38616ZM21.37 8.25837V8.2649C21.37 8.26271 21.37 8.26056 21.37 8.25837ZM16.9001 7.97333L16.9178 8.01518L16.8926 7.95733L16.9001 7.97333ZM16.5682 7.35346L16.5754 7.36547L16.5752 7.36544L16.558 7.33801L16.5682 7.35346ZM18.0112 6.80801C18.0112 6.82576 18.0109 6.8435 18.0106 6.86121C18.01 6.89825 18.0092 6.9352 18.0081 6.9721V6.98447L18.0089 6.95159C18.0095 6.92994 18.0098 6.9083 18.0103 6.88665C18.0106 6.86044 18.0109 6.83423 18.0112 6.80801ZM16.2347 6.40714L16.2272 6.40717C16.2297 6.40717 16.2322 6.40717 16.2347 6.40714ZM16.1511 6.40656L16.1531 6.40659C16.1525 6.40656 16.1517 6.40656 16.1511 6.40656ZM16.1475 6.40648L16.15 6.40653C16.1492 6.4065 16.1484 6.4065 16.1475 6.40648ZM16.1436 6.40639L16.145 6.40642C16.1448 6.40642 16.1442 6.40639 16.1436 6.40639ZM16.1273 6.40598L16.1306 6.40606C16.1295 6.40603 16.1284 6.406 16.1273 6.40598ZM16.3089 6.40581L16.3067 6.40587C16.3075 6.40584 16.3081 6.40581 16.3089 6.40581ZM16.3208 6.40542L16.32 6.40545C16.3202 6.40545 16.3205 6.40542 16.3208 6.40542ZM16.1074 6.40534L16.1079 6.40537C16.1077 6.40537 16.1077 6.40534 16.1074 6.40534ZM16.0758 6.40409L16.0789 6.40423C16.0778 6.40418 16.0769 6.40415 16.0758 6.40409ZM16.0518 6.40293L16.0537 6.40301C16.0531 6.40299 16.0523 6.40296 16.0518 6.40293ZM16.3847 6.4026L16.3814 6.40279C16.3825 6.40274 16.3836 6.40268 16.3847 6.4026ZM16.0443 6.40252L16.0462 6.40263C16.0457 6.4026 16.0448 6.40257 16.0443 6.40252ZM16.031 6.40177L16.0429 6.40243C16.0387 6.40224 16.0349 6.40199 16.031 6.40177ZM16.0252 6.40141L16.0271 6.40152C16.0266 6.40149 16.0257 6.40147 16.0252 6.40141ZM16.0055 6.40016L16.008 6.40033C16.0072 6.40028 16.0064 6.40022 16.0055 6.40016ZM16.0017 6.39989L16.0025 6.39994C16.0022 6.39994 16.0019 6.39992 16.0017 6.39989ZM15.9967 6.39956L15.9992 6.39972C15.9983 6.39967 15.9975 6.39961 15.9967 6.39956ZM15.9864 6.39881L15.9878 6.39892C15.9873 6.39886 15.987 6.39884 15.9864 6.39881ZM15.9679 6.39737L15.9698 6.39753C15.969 6.39748 15.9684 6.39742 15.9679 6.39737ZM16.4935 6.39479L16.4894 6.39515C16.4907 6.39504 16.4921 6.39491 16.4935 6.39479ZM16.5004 6.39416L16.4993 6.39424C16.4996 6.39421 16.5002 6.39419 16.5004 6.39416ZM15.9272 6.39388L15.9277 6.39394C15.9275 6.39391 15.9275 6.39391 15.9272 6.39388ZM16.5093 6.39333L16.5087 6.39338C16.5087 6.39338 16.509 6.39336 16.5093 6.39333ZM15.9125 6.3925L15.915 6.39272C15.9142 6.39264 15.9134 6.39258 15.9125 6.3925ZM16.5176 6.39252L16.5162 6.39266C16.5165 6.39261 16.517 6.39258 16.5176 6.39252ZM15.9028 6.39153L15.9039 6.39161C15.9037 6.39158 15.9034 6.39156 15.9028 6.39153ZM15.8962 6.39084L15.8981 6.39103C15.8973 6.39097 15.8967 6.39089 15.8962 6.39084ZM15.8109 6.38084C15.8137 6.3812 15.8165 6.38156 15.8193 6.38192L15.8104 6.38079L15.8109 6.38084ZM16.6884 6.37099L16.687 6.37121C16.6875 6.37116 16.6878 6.37107 16.6884 6.37099ZM16.8688 6.33758L16.8677 6.33778C16.8683 6.33769 16.8686 6.33764 16.8688 6.33758ZM16.9045 6.32964L16.9021 6.33014C16.9029 6.32997 16.9037 6.3298 16.9045 6.32964ZM16.9076 6.32892L16.9062 6.32922C16.9068 6.32911 16.907 6.32903 16.9076 6.32892ZM17.4086 6.16686L17.4091 6.16669L17.4036 6.16896C17.4053 6.16827 17.4069 6.16755 17.4086 6.16686ZM17.6023 6.07701L17.6001 6.07823C17.6009 6.07781 17.6018 6.07743 17.6023 6.07701ZM17.6737 6.0397L17.6729 6.04012C17.6732 6.03998 17.6735 6.03984 17.6737 6.0397ZM17.7407 6.00236L17.7393 6.00325C17.7399 6.00294 17.7404 6.00264 17.7407 6.00236ZM14.4442 5.84642V5.84644L14.4375 5.8416L14.4442 5.84642ZM14.427 5.83427V5.83432L14.4198 5.82906L14.427 5.83427ZM14.4101 5.822V5.82206L14.4026 5.81658L14.4101 5.822ZM14.3929 5.8096L14.3932 5.80969L14.3855 5.80401L14.3929 5.8096ZM14.3761 5.79712L14.3763 5.7972L14.3686 5.79139L14.3761 5.79712ZM14.3595 5.7845L14.3597 5.78461L14.3517 5.77869L14.3595 5.7845ZM14.3428 5.77177V5.77191L14.3345 5.76548L14.3428 5.77177ZM14.3262 5.75892V5.75906L14.3179 5.75256L14.3262 5.75892ZM14.3096 5.74594V5.74608L14.3016 5.73955L14.3096 5.74594ZM14.7212 5.66066C14.755 5.67879 14.789 5.69695 14.8228 5.71508L14.8754 5.74475L14.7782 5.73999L14.6933 5.73794L14.6628 5.63736L14.6603 5.63L14.7212 5.66066ZM14.293 5.73285L14.2933 5.73302L14.285 5.7264L14.293 5.73285ZM14.2767 5.71968L14.277 5.71981L14.2687 5.71317L14.2767 5.71968ZM14.2604 5.70636L14.2606 5.7065L14.2526 5.6998L14.2604 5.70636ZM14.2443 5.69294L14.2446 5.6931L14.2366 5.68632L14.2443 5.69294ZM14.2283 5.67943L14.2285 5.67957L14.2205 5.67276L14.2283 5.67943ZM14.2122 5.66578L14.2125 5.66595L14.2045 5.65906L14.2122 5.66578ZM14.1962 5.65203L14.1964 5.65217L14.1884 5.64522L14.1962 5.65203ZM14.1804 5.63813L14.1807 5.6383L14.1726 5.6313L14.1804 5.63813ZM14.1646 5.62416L14.1649 5.62432L14.1571 5.61726L14.1646 5.62416ZM14.1491 5.61007L14.1494 5.61023L14.1413 5.60312L14.1491 5.61007ZM14.1336 5.59587V5.59603L14.1258 5.58889L14.1336 5.59587ZM14.1181 5.58156V5.58172L14.1106 5.57453L14.1181 5.58156ZM14.1026 5.56716L14.1029 5.56733L14.0951 5.56008L14.1026 5.56716ZM14.0874 5.55266L14.0876 5.55283L14.0793 5.54496L14.0874 5.55266ZM14.071 5.53694L14.0713 5.5371L14.0633 5.52922L14.071 5.53694ZM14.055 5.52113L14.0553 5.5213L14.047 5.51333L14.055 5.52113ZM14.0389 5.50519L14.0392 5.50536L14.0312 5.49733L14.0389 5.50519ZM14.0229 5.48914L14.0232 5.4893L14.0151 5.48122L14.0229 5.48914ZM14.0071 5.47297L14.0074 5.47314L13.9996 5.465L14.0071 5.47297ZM13.9913 5.4567L13.9916 5.45686L13.9839 5.44867L13.9913 5.4567ZM13.9758 5.44031L13.9761 5.44048L13.9684 5.43223L13.9758 5.44031ZM13.9603 5.42379L13.9606 5.42395L13.9529 5.41568L13.9603 5.42379ZM13.9451 5.40721L13.9454 5.40737L13.9376 5.39901L13.9451 5.40721ZM13.9299 5.39052L13.9302 5.39068L13.9227 5.38227L13.9299 5.39052ZM13.9149 5.37372V5.37388L13.9075 5.36541L13.9149 5.37372ZM13.9 5.35678V5.35697L13.8928 5.34844L13.9 5.35678ZM13.885 5.33975L13.8853 5.33995L13.8778 5.33137L13.885 5.33975ZM13.8704 5.32262L13.8706 5.32281L13.8634 5.31418L13.8704 5.32262ZM13.856 5.3054V5.30557L13.8488 5.29691L13.856 5.3054ZM13.8416 5.28805V5.28821L13.8344 5.27952L13.8416 5.28805ZM13.8272 5.27061V5.2708L13.8203 5.26203L13.8272 5.27061ZM13.8131 5.25309V5.25328L13.8062 5.24445L13.8131 5.25309ZM13.799 5.23546L13.7992 5.23565L13.792 5.22679L13.799 5.23546ZM13.7851 5.21774V5.21791L13.7782 5.209L13.7851 5.21774ZM13.7713 5.19992L13.7716 5.20008L13.7646 5.19114L13.7713 5.19992ZM13.7577 5.18198V5.18215L13.7511 5.17315L13.7577 5.18198ZM13.7442 5.16394V5.16413L13.7375 5.15508L13.7442 5.16394ZM13.7309 5.14583V5.146L13.7242 5.13689L13.7309 5.14583ZM13.7176 5.12762V5.12779L13.7112 5.11865L13.7176 5.12762ZM13.7043 5.1093L13.7046 5.10949L13.6979 5.1003L13.7043 5.1093ZM13.6916 5.09092V5.09108L13.6852 5.08184L13.6916 5.09092ZM13.6786 5.0724L13.6788 5.07259L13.6725 5.06332L13.6786 5.0724ZM13.6658 5.05383L13.6661 5.05402L13.6597 5.04469L13.6658 5.05383ZM13.6534 5.03514V5.03534L13.6473 5.02596L13.6534 5.03514ZM13.6409 5.01638V5.01657L13.6348 5.00713L13.6409 5.01638ZM13.6286 4.99753L13.6287 4.99764L13.6256 4.99291L13.6286 4.99753ZM13.6224 4.9879L13.6225 4.98809L13.6195 4.98327L13.6224 4.9879ZM13.6162 4.97826L13.6164 4.97846L13.6133 4.97364L13.6162 4.97826ZM13.6102 4.96863L13.6103 4.96883L13.6072 4.96398L13.6102 4.96863ZM13.6041 4.95894L13.6042 4.95914L13.6012 4.95429L13.6041 4.95894ZM13.598 4.94926L13.5981 4.94945L13.5951 4.94458L13.598 4.94926ZM13.592 4.93951L13.5921 4.93971L13.5891 4.93484L13.592 4.93951ZM13.586 4.92977L13.5862 4.92996L13.5832 4.92509L13.586 4.92977ZM13.5801 4.92L13.5802 4.92022L13.5773 4.91532L13.5801 4.92ZM13.5742 4.91023L13.5743 4.91042L13.5714 4.90552L13.5742 4.91023ZM13.5683 4.9004L13.5685 4.90062L13.5655 4.8957L13.5683 4.9004ZM13.5625 4.89058L13.5626 4.89077L13.5598 4.88587L13.5625 4.89058ZM13.5567 4.88072L13.5568 4.88092L13.554 4.87599L13.5567 4.88072ZM13.551 4.87084L13.5511 4.87106L13.5482 4.86611L13.551 4.87084ZM13.5452 4.86096L13.5454 4.86115L13.5425 4.8562L13.5452 4.86096ZM13.5396 4.85102L13.5397 4.85125L13.5369 4.84626L13.5396 4.85102ZM13.5339 4.84109L13.534 4.84131L13.5313 4.83635L13.5339 4.84109ZM13.5284 4.83121L13.5285 4.8314L13.5257 4.82645L13.5284 4.83121ZM13.5228 4.8213L13.5229 4.82149L13.5202 4.81654L13.5228 4.8213ZM13.5173 4.81136L13.5175 4.81158L13.5147 4.8066L13.5173 4.81136ZM13.5119 4.80142L13.512 4.80162L13.5093 4.79663L13.5119 4.80142ZM13.5065 4.79146L13.5066 4.79165L13.5039 4.78664L13.5065 4.79146ZM13.5011 4.78147L13.5012 4.78166L13.4985 4.77665L13.5011 4.78147ZM13.4957 4.77145L13.4958 4.77164L13.4932 4.76663L13.4957 4.77145ZM13.4904 4.76143L13.4905 4.76162L13.4879 4.75661L13.4904 4.76143ZM13.4852 4.75135L13.4853 4.75157L13.4826 4.74654L13.4852 4.75135ZM13.4799 4.7413L13.48 4.7415L13.4774 4.73646L13.4799 4.7413ZM13.4747 4.7312L13.4748 4.73142L13.4723 4.72636L13.4747 4.7312ZM13.4696 4.7211L13.4697 4.72132L13.4671 4.71625L13.4696 4.7211ZM13.4645 4.71097L13.4645 4.71119L13.462 4.70612L13.4645 4.71097ZM13.4594 4.70084L13.4595 4.70103L13.457 4.69597L13.4594 4.70084ZM13.4543 4.69065L13.4544 4.69087L13.4519 4.68578L13.4543 4.69065ZM13.4493 4.68047L13.4494 4.68069L13.4468 4.67529L13.4493 4.68047ZM13.444 4.66967L13.4441 4.66989L13.4415 4.66447L13.444 4.66967ZM13.4388 4.65885L13.4389 4.65907L13.4363 4.65364L13.4388 4.65885ZM13.4336 4.64803L13.4338 4.64822L13.4312 4.64279L13.4336 4.64803ZM13.4285 4.63718L13.4286 4.63737L13.4261 4.63192L13.4285 4.63718ZM13.4234 4.62627L13.4235 4.62649L13.421 4.62104L13.4234 4.62627ZM13.4184 4.61539L13.4185 4.61559L13.416 4.61013L13.4184 4.61539ZM13.4134 4.60446L13.4135 4.60468L13.411 4.5992L13.4134 4.60446ZM13.4084 4.59353L13.4085 4.59375L13.4061 4.58827L13.4084 4.59353ZM13.4035 4.58257L13.4036 4.58279L13.4012 4.57731L13.4035 4.58257ZM13.3986 4.5716L13.3987 4.5718L13.3963 4.56632L13.3986 4.5716ZM13.3938 4.56059L13.3939 4.56081L13.3915 4.5553L13.3938 4.56059ZM13.389 4.54957L13.3891 4.54979L13.3867 4.54429L13.389 4.54957ZM13.3842 4.53856L13.3843 4.53875L13.382 4.53324L13.3842 4.53856ZM13.3795 4.52748L13.3796 4.52771L13.3773 4.52217L13.3795 4.52748ZM13.3749 4.51641L13.375 4.51663L13.3726 4.5111L13.3749 4.51641ZM13.3703 4.50534L13.3704 4.50559L13.3668 4.4969L13.3703 4.50534ZM13.3631 4.48804L13.3632 4.48826L13.3597 4.47957L13.3631 4.48804ZM13.3561 4.47069L13.3563 4.47091L13.3528 4.46222L13.3561 4.47069ZM13.3493 4.4533L13.3494 4.45353L13.346 4.44481L13.3493 4.4533ZM13.3425 4.43589L13.3426 4.43606L13.3403 4.43027L13.3425 4.43589ZM13.338 4.42421L13.3381 4.42444L13.3359 4.41859L13.338 4.42421ZM17.6472 4.34934L17.669 4.42269L17.638 4.32122L17.6472 4.34934ZM13.3247 4.38867L13.3282 4.39797C13.327 4.39487 13.3259 4.39177 13.3247 4.38867ZM17.3153 3.47053L17.3325 3.51103L17.315 3.47039L17.3153 3.47053ZM17.2129 3.25004L17.2229 3.27155L17.2223 3.27146L17.1988 3.22231L17.2129 3.25004ZM17.2071 3.26886L17.2087 3.26914C17.2082 3.26906 17.2076 3.26897 17.2071 3.26886ZM17.2004 3.26776L17.2015 3.26795C17.2013 3.26789 17.2007 3.26784 17.2004 3.26776ZM14.4561 0.0662047C14.5089 0.103073 14.5623 0.139942 14.6155 0.176782L14.6971 0.236431L14.5361 0.209748L14.3943 0.189874L14.3633 0.0160502L14.3603 0.00323486L14.4561 0.0662047Z" fill="#EF3035"/>
</g>
<path d="M6.60141 13.0409C5.30631 13.0409 4.16111 12.7651 3.1658 12.2135C2.18248 11.6499 1.40902 10.8764 0.845413 9.89313C0.281804 8.90981 0 7.78259 0 6.51148C0 5.56413 0.161888 4.69474 0.485663 3.90329C0.821429 3.11184 1.2891 2.42831 1.88869 1.85271C2.50026 1.26512 3.21377 0.809438 4.0292 0.485663C4.85663 0.161887 5.756 0 6.72733 0C7.61471 0 8.47211 0.173879 9.29954 0.521637C10.139 0.857404 10.8405 1.34906 11.4041 1.99661L9.42545 4.24505C9.08968 3.86132 8.69396 3.55553 8.23828 3.32769C7.79458 3.09985 7.28494 2.98593 6.70934 2.98593C6.07378 2.98593 5.49818 3.12983 4.98254 3.41763C4.47889 3.70543 4.07117 4.11914 3.75939 4.65876C3.4596 5.1864 3.3097 5.81596 3.3097 6.54745C3.3097 7.61471 3.64547 8.46612 4.317 9.10168C4.98853 9.73724 5.87592 10.055 6.97915 10.055C7.53077 10.055 8.04641 9.94109 8.52608 9.71325C9.01773 9.48541 9.42545 9.19161 9.74923 8.83186L11.3141 11.2962C11.0143 11.6319 10.6126 11.9317 10.109 12.1955C9.60532 12.4593 9.04771 12.6692 8.43614 12.8251C7.83655 12.969 7.22498 13.0409 6.60141 13.0409Z" fill="#FCFCFD"/>
<path d="M22.357 13.0409V0H28.2813C29.1383 0 29.9021 0.18009 30.5728 0.540269C31.2559 0.900447 31.7899 1.39724 32.175 2.03066C32.5724 2.65166 32.7711 3.35959 32.7711 4.15447C32.7711 5.03629 32.5538 5.81874 32.1191 6.50184C31.6968 7.17252 31.1255 7.68794 30.4051 8.04812L33.3114 13.0409H29.4922L26.94 8.51387H25.5427V13.0409H22.357ZM25.5427 5.99883H27.9273C28.4117 5.99883 28.7905 5.84979 29.0638 5.55171C29.337 5.25364 29.4736 4.8562 29.4736 4.3594C29.4736 3.87502 29.3184 3.49 29.0079 3.20435C28.6974 2.90627 28.2627 2.75723 27.7038 2.75723H25.5427V5.99883Z" fill="#FCFCFD"/>
<defs>
<clipPath id="clip0_102_129">
<rect width="9.9711" height="13.0411" fill="white" transform="translate(11.4138)"/>
</clipPath>
</defs>
</svg>
