<svg  viewBox="0 0 78 39" fill="none" xmlns="http://www.w3.org/2000/svg">
<path d="M2.2821 38.8525C1.90802 38.8525 1.57722 38.7728 1.28973 38.6135C1.0057 38.4507 0.782284 38.2273 0.619486 37.9433C0.456688 37.6592 0.375289 37.3336 0.375289 36.9665C0.375289 36.6928 0.42205 36.4417 0.515573 36.2131C0.612559 35.9845 0.747647 35.7871 0.920836 35.6208C1.09749 35.4511 1.30358 35.3195 1.53912 35.2259C1.77812 35.1324 2.03791 35.0856 2.31847 35.0856C2.57479 35.0856 2.82246 35.1359 3.06146 35.2363C3.30392 35.3333 3.50655 35.4753 3.66935 35.6624L3.09783 36.3118C3.00084 36.201 2.88654 36.1127 2.75491 36.0468C2.62675 35.981 2.47954 35.9481 2.31328 35.9481C2.1297 35.9481 1.96344 35.9897 1.81449 36.0728C1.66901 36.156 1.55125 36.2755 1.46119 36.4313C1.37459 36.5837 1.33129 36.7656 1.33129 36.9769C1.33129 37.2851 1.42828 37.5311 1.62225 37.7147C1.81623 37.8982 2.07255 37.99 2.39121 37.99C2.55055 37.99 2.69949 37.9571 2.83804 37.8913C2.98006 37.8255 3.09783 37.7406 3.19135 37.6367L3.64337 38.3485C3.55678 38.4455 3.44074 38.5321 3.29526 38.6083C3.14978 38.6845 2.98872 38.7451 2.81206 38.7902C2.63887 38.8317 2.46222 38.8525 2.2821 38.8525Z" fill="#242424"/>
<path d="M5.88941 38.8525C5.61577 38.8525 5.36291 38.8058 5.13084 38.7122C4.89877 38.6187 4.69787 38.4871 4.52814 38.3174C4.35842 38.1476 4.22679 37.9485 4.13327 37.7199C4.03975 37.4912 3.99299 37.2401 3.99299 36.9665C3.99299 36.6928 4.03975 36.4417 4.13327 36.2131C4.22679 35.981 4.35842 35.7801 4.52814 35.6104C4.69787 35.4407 4.89877 35.3091 5.13084 35.2155C5.36291 35.122 5.61577 35.0753 5.88941 35.0753C6.16651 35.0753 6.4211 35.122 6.65317 35.2155C6.88525 35.3091 7.08615 35.4407 7.25587 35.6104C7.4256 35.7801 7.55722 35.981 7.65075 36.2131C7.74427 36.4417 7.79103 36.6928 7.79103 36.9665C7.79103 37.2367 7.74427 37.4878 7.65075 37.7199C7.55722 37.9485 7.4256 38.1476 7.25587 38.3174C7.08615 38.4871 6.88525 38.6187 6.65317 38.7122C6.4211 38.8058 6.16651 38.8525 5.88941 38.8525ZM5.88941 37.9796C6.07299 37.9796 6.23579 37.9363 6.3778 37.8497C6.51982 37.7597 6.63239 37.6385 6.71552 37.486C6.79865 37.3336 6.84022 37.1605 6.84022 36.9665C6.84022 36.769 6.79865 36.5941 6.71552 36.4417C6.63239 36.2893 6.51982 36.1698 6.3778 36.0832C6.23579 35.9966 6.07299 35.9533 5.88941 35.9533C5.70583 35.9533 5.54303 35.9966 5.40102 36.0832C5.259 36.1698 5.14643 36.2893 5.0633 36.4417C4.98363 36.5941 4.9438 36.769 4.9438 36.9665C4.9438 37.1605 4.98363 37.3336 5.0633 37.486C5.14643 37.6385 5.259 37.7597 5.40102 37.8497C5.54303 37.9363 5.70583 37.9796 5.88941 37.9796Z" fill="#242424"/>
<path d="M8.46326 38.8006V35.1636H10.1155C10.3545 35.1636 10.5675 35.2138 10.7546 35.3143C10.9451 35.4147 11.094 35.5533 11.2014 35.7299C11.3122 35.9031 11.3676 36.1005 11.3676 36.3222C11.3676 36.5681 11.307 36.7864 11.1858 36.9769C11.068 37.1639 10.9087 37.3077 10.7078 37.4081L11.5183 38.8006H10.4532L9.7414 37.538H9.35172V38.8006H8.46326ZM9.35172 36.8366H10.0168C10.1519 36.8366 10.2575 36.795 10.3337 36.7119C10.4099 36.6288 10.448 36.5179 10.448 36.3794C10.448 36.2443 10.4047 36.1369 10.3181 36.0572C10.2315 35.9741 10.1103 35.9325 9.95442 35.9325H9.35172V36.8366Z" fill="#242424"/>
<path d="M12.1165 38.8006V35.1636H13.7012C13.9332 35.1636 14.1411 35.2155 14.3246 35.3195C14.5082 35.4234 14.652 35.5671 14.7559 35.7507C14.8633 35.9308 14.9169 36.1369 14.9169 36.369C14.9169 36.608 14.8633 36.821 14.7559 37.008C14.652 37.1951 14.5082 37.344 14.3246 37.4549C14.1411 37.5623 13.9332 37.6159 13.7012 37.6159H13.0517V38.8006H12.1165ZM13.0361 36.8002H13.5609C13.6717 36.8002 13.7652 36.7621 13.8414 36.6859C13.9176 36.6062 13.9557 36.5041 13.9557 36.3794C13.9557 36.2547 13.9176 36.1577 13.8414 36.0884C13.7652 36.0157 13.6717 35.9793 13.5609 35.9793H13.0361V36.8002Z" fill="#242424"/>
<path d="M17.255 38.8525C16.9813 38.8525 16.7285 38.8058 16.4964 38.7122C16.2643 38.6187 16.0634 38.4871 15.8937 38.3174C15.724 38.1476 15.5923 37.9485 15.4988 37.7199C15.4053 37.4912 15.3585 37.2401 15.3585 36.9665C15.3585 36.6928 15.4053 36.4417 15.4988 36.2131C15.5923 35.981 15.724 35.7801 15.8937 35.6104C16.0634 35.4407 16.2643 35.3091 16.4964 35.2155C16.7285 35.122 16.9813 35.0753 17.255 35.0753C17.5321 35.0753 17.7867 35.122 18.0187 35.2155C18.2508 35.3091 18.4517 35.4407 18.6214 35.6104C18.7912 35.7801 18.9228 35.981 19.0163 36.2131C19.1098 36.4417 19.1566 36.6928 19.1566 36.9665C19.1566 37.2367 19.1098 37.4878 19.0163 37.7199C18.9228 37.9485 18.7912 38.1476 18.6214 38.3174C18.4517 38.4871 18.2508 38.6187 18.0187 38.7122C17.7867 38.8058 17.5321 38.8525 17.255 38.8525ZM17.255 37.9796C17.4385 37.9796 17.6013 37.9363 17.7434 37.8497C17.8854 37.7597 17.9979 37.6385 18.0811 37.486C18.1642 37.3336 18.2058 37.1605 18.2058 36.9665C18.2058 36.769 18.1642 36.5941 18.0811 36.4417C17.9979 36.2893 17.8854 36.1698 17.7434 36.0832C17.6013 35.9966 17.4385 35.9533 17.255 35.9533C17.0714 35.9533 16.9086 35.9966 16.7666 36.0832C16.6246 36.1698 16.512 36.2893 16.4289 36.4417C16.3492 36.5941 16.3093 36.769 16.3093 36.9665C16.3093 37.1605 16.3492 37.3336 16.4289 37.486C16.512 37.6385 16.6246 37.7597 16.7666 37.8497C16.9086 37.9363 17.0714 37.9796 17.255 37.9796Z" fill="#242424"/>
<path d="M19.8288 38.8006V35.1636H21.481C21.72 35.1636 21.9331 35.2138 22.1201 35.3143C22.3106 35.4147 22.4596 35.5533 22.5669 35.7299C22.6778 35.9031 22.7332 36.1005 22.7332 36.3222C22.7332 36.5681 22.6726 36.7864 22.5514 36.9769C22.4336 37.1639 22.2743 37.3077 22.0733 37.4081L22.8839 38.8006H21.8188L21.107 37.538H20.7173V38.8006H19.8288ZM20.7173 36.8366H21.3823C21.5174 36.8366 21.6231 36.795 21.6993 36.7119C21.7755 36.6288 21.8136 36.5179 21.8136 36.3794C21.8136 36.2443 21.7703 36.1369 21.6837 36.0572C21.5971 35.9741 21.4758 35.9325 21.32 35.9325H20.7173V36.8366Z" fill="#242424"/>
<path d="M23.0092 38.8006L24.4536 35.1636H25.233L26.6618 38.8006H25.7214L25.4772 38.1407H24.1731L23.9289 38.8006H23.0092ZM24.5887 37.0184L24.4276 37.4497H25.2226L25.0563 37.008C25.0182 36.8972 24.9784 36.7846 24.9368 36.6703C24.8987 36.556 24.8623 36.44 24.8277 36.3222C24.7931 36.4365 24.7567 36.5491 24.7186 36.6599C24.6805 36.7708 24.6372 36.8903 24.5887 37.0184Z" fill="#242424"/>
<path d="M28.6664 38.8525C28.2923 38.8525 27.9615 38.7728 27.674 38.6135C27.39 38.4507 27.1666 38.2273 27.0038 37.9433C26.841 37.6592 26.7596 37.3336 26.7596 36.9665C26.7596 36.6928 26.8064 36.4417 26.8999 36.2131C26.9969 35.9845 27.132 35.7871 27.3052 35.6208C27.4818 35.4511 27.6879 35.3195 27.9234 35.2259C28.1624 35.1324 28.4222 35.0856 28.7028 35.0856C28.9591 35.0856 29.2068 35.1359 29.4458 35.2363C29.6882 35.3333 29.8909 35.4753 30.0537 35.6624L29.4821 36.3118C29.3852 36.201 29.2709 36.1127 29.1392 36.0468C29.0111 35.981 28.8639 35.9481 28.6976 35.9481C28.514 35.9481 28.3478 35.9897 28.1988 36.0728C28.0533 36.156 27.9356 36.2755 27.8455 36.4313C27.7589 36.5837 27.7156 36.7656 27.7156 36.9769C27.7156 37.2851 27.8126 37.5311 28.0066 37.7147C28.2005 37.8982 28.4569 37.99 28.7755 37.99C28.9349 37.99 29.0838 37.9571 29.2224 37.8913C29.3644 37.8255 29.4821 37.7406 29.5757 37.6367L30.0277 38.3485C29.9411 38.4455 29.8251 38.5321 29.6796 38.6083C29.5341 38.6845 29.373 38.7451 29.1964 38.7902C29.0232 38.8317 28.8465 38.8525 28.6664 38.8525Z" fill="#242424"/>
<path d="M30.5384 38.8006V38.0212H31.1619V35.9429H30.5384V35.1636H32.7154V35.9429H32.0971V38.0212H32.7154V38.8006H30.5384Z" fill="#242424"/>
<path d="M35.1456 38.8525C34.8719 38.8525 34.6191 38.8058 34.387 38.7122C34.1549 38.6187 33.954 38.4871 33.7843 38.3174C33.6146 38.1476 33.4829 37.9485 33.3894 37.7199C33.2959 37.4912 33.2491 37.2401 33.2491 36.9665C33.2491 36.6928 33.2959 36.4417 33.3894 36.2131C33.4829 35.981 33.6146 35.7801 33.7843 35.6104C33.954 35.4407 34.1549 35.3091 34.387 35.2155C34.6191 35.122 34.8719 35.0753 35.1456 35.0753C35.4227 35.0753 35.6773 35.122 35.9093 35.2155C36.1414 35.3091 36.3423 35.4407 36.512 35.6104C36.6818 35.7801 36.8134 35.981 36.9069 36.2131C37.0004 36.4417 37.0472 36.6928 37.0472 36.9665C37.0472 37.2367 37.0004 37.4878 36.9069 37.7199C36.8134 37.9485 36.6818 38.1476 36.512 38.3174C36.3423 38.4871 36.1414 38.6187 35.9093 38.7122C35.6773 38.8058 35.4227 38.8525 35.1456 38.8525ZM35.1456 37.9796C35.3291 37.9796 35.4919 37.9363 35.634 37.8497C35.776 37.7597 35.8885 37.6385 35.9717 37.486C36.0548 37.3336 36.0964 37.1605 36.0964 36.9665C36.0964 36.769 36.0548 36.5941 35.9717 36.4417C35.8885 36.2893 35.776 36.1698 35.634 36.0832C35.4919 35.9966 35.3291 35.9533 35.1456 35.9533C34.962 35.9533 34.7992 35.9966 34.6572 36.0832C34.5152 36.1698 34.4026 36.2893 34.3194 36.4417C34.2398 36.5941 34.1999 36.769 34.1999 36.9665C34.1999 37.1605 34.2398 37.3336 34.3194 37.486C34.4026 37.6385 34.5152 37.7597 34.6572 37.8497C34.7992 37.9363 34.962 37.9796 35.1456 37.9796ZM34.6728 34.9246L34.4753 34.4778L35.582 33.8802L35.8678 34.5141L34.6728 34.9246Z" fill="#242424"/>
<path d="M37.7194 38.8006V35.1636H38.5559L40.1926 37.3977C40.1752 37.2453 40.1597 37.1033 40.1458 36.9717C40.1354 36.8366 40.1285 36.6928 40.125 36.5404C40.1215 36.388 40.1198 36.2114 40.1198 36.0105V35.1636H41.0291V38.8006H40.1822L38.5663 36.6132C38.5836 36.7656 38.5957 36.8937 38.6027 36.9977C38.6131 37.1016 38.62 37.202 38.6235 37.299C38.6269 37.396 38.6287 37.5086 38.6287 37.6367V38.8006H37.7194Z" fill="#242424"/>
<path d="M43.6204 38.8006V35.1636H45.2726C45.5116 35.1636 45.7246 35.2138 45.9117 35.3143C46.1022 35.4147 46.2511 35.5533 46.3585 35.7299C46.4693 35.9031 46.5248 36.1005 46.5248 36.3222C46.5248 36.5681 46.4641 36.7864 46.3429 36.9769C46.2251 37.1639 46.0658 37.3077 45.8649 37.4081L46.6754 38.8006H45.6103L44.8985 37.538H44.5088V38.8006H43.6204ZM44.5088 36.8366H45.1739C45.309 36.8366 45.4146 36.795 45.4908 36.7119C45.567 36.6288 45.6051 36.5179 45.6051 36.3794C45.6051 36.2443 45.5618 36.1369 45.4752 36.0572C45.3886 35.9741 45.2674 35.9325 45.1115 35.9325H44.5088V36.8366Z" fill="#242424"/>
<path d="M48.8959 38.8525C48.6222 38.8525 48.3694 38.8058 48.1373 38.7122C47.9052 38.6187 47.7043 38.4871 47.5346 38.3174C47.3649 38.1476 47.2332 37.9485 47.1397 37.7199C47.0462 37.4912 46.9994 37.2401 46.9994 36.9665C46.9994 36.6928 47.0462 36.4417 47.1397 36.2131C47.2332 35.981 47.3649 35.7801 47.5346 35.6104C47.7043 35.4407 47.9052 35.3091 48.1373 35.2155C48.3694 35.122 48.6222 35.0753 48.8959 35.0753C49.173 35.0753 49.4275 35.122 49.6596 35.2155C49.8917 35.3091 50.0926 35.4407 50.2623 35.6104C50.432 35.7801 50.5637 35.981 50.6572 36.2131C50.7507 36.4417 50.7975 36.6928 50.7975 36.9665C50.7975 37.2367 50.7507 37.4878 50.6572 37.7199C50.5637 37.9485 50.432 38.1476 50.2623 38.3174C50.0926 38.4871 49.8917 38.6187 49.6596 38.7122C49.4275 38.8058 49.173 38.8525 48.8959 38.8525ZM48.8959 37.9796C49.0794 37.9796 49.2422 37.9363 49.3842 37.8497C49.5263 37.7597 49.6388 37.6385 49.722 37.486C49.8051 37.3336 49.8467 37.1605 49.8467 36.9665C49.8467 36.769 49.8051 36.5941 49.722 36.4417C49.6388 36.2893 49.5263 36.1698 49.3842 36.0832C49.2422 35.9966 49.0794 35.9533 48.8959 35.9533C48.7123 35.9533 48.5495 35.9966 48.4075 36.0832C48.2654 36.1698 48.1529 36.2893 48.0697 36.4417C47.9901 36.5941 47.9502 36.769 47.9502 36.9665C47.9502 37.1605 47.9901 37.3336 48.0697 37.486C48.1529 37.6385 48.2654 37.7597 48.4075 37.8497C48.5495 37.9363 48.7123 37.9796 48.8959 37.9796Z" fill="#242424"/>
<path d="M51.4697 38.8006V35.1636H52.2958L53.3194 36.821L54.3533 35.1636H55.1482V38.8006H54.239V37.7251C54.239 37.5311 54.2425 37.3492 54.2494 37.1795C54.2563 37.0098 54.2667 36.847 54.2806 36.6911L53.47 37.9433H53.1271L52.3426 36.7067C52.3564 36.8522 52.3651 37.008 52.3686 37.1743C52.3755 37.3406 52.3789 37.5242 52.3789 37.7251V38.8006H51.4697Z" fill="#242424"/>
<path d="M56.0413 38.8006V35.1636H58.6183V35.9481H56.9453V36.5768H58.3949V37.325H56.9453V38.016H58.6807V38.8006H56.0413Z" fill="#242424"/>
<path d="M59.4205 38.8006V35.1636H61.0727C61.3117 35.1636 61.5248 35.2138 61.7118 35.3143C61.9023 35.4147 62.0513 35.5533 62.1586 35.7299C62.2695 35.9031 62.3249 36.1005 62.3249 36.3222C62.3249 36.5681 62.2643 36.7864 62.1431 36.9769C62.0253 37.1639 61.866 37.3077 61.6651 37.4081L62.4756 38.8006H61.4105L60.6987 37.538H60.309V38.8006H59.4205ZM60.309 36.8366H60.974C61.1091 36.8366 61.2148 36.795 61.291 36.7119C61.3672 36.6288 61.4053 36.5179 61.4053 36.3794C61.4053 36.2443 61.362 36.1369 61.2754 36.0572C61.1888 35.9741 61.0675 35.9325 60.9117 35.9325H60.309V36.8366Z" fill="#242424"/>
<path d="M64.696 38.8525C64.4224 38.8525 64.1695 38.8058 63.9374 38.7122C63.7054 38.6187 63.5045 38.4871 63.3347 38.3174C63.165 38.1476 63.0334 37.9485 62.9399 37.7199C62.8463 37.4912 62.7996 37.2401 62.7996 36.9665C62.7996 36.6928 62.8463 36.4417 62.9399 36.2131C63.0334 35.981 63.165 35.7801 63.3347 35.6104C63.5045 35.4407 63.7054 35.3091 63.9374 35.2155C64.1695 35.122 64.4224 35.0753 64.696 35.0753C64.9731 35.0753 65.2277 35.122 65.4598 35.2155C65.6918 35.3091 65.8927 35.4407 66.0625 35.6104C66.2322 35.7801 66.3638 35.981 66.4573 36.2131C66.5509 36.4417 66.5976 36.6928 66.5976 36.9665C66.5976 37.2367 66.5509 37.4878 66.4573 37.7199C66.3638 37.9485 66.2322 38.1476 66.0625 38.3174C65.8927 38.4871 65.6918 38.6187 65.4598 38.7122C65.2277 38.8058 64.9731 38.8525 64.696 38.8525ZM64.696 37.9796C64.8796 37.9796 65.0424 37.9363 65.1844 37.8497C65.3264 37.7597 65.439 37.6385 65.5221 37.486C65.6053 37.3336 65.6468 37.1605 65.6468 36.9665C65.6468 36.769 65.6053 36.5941 65.5221 36.4417C65.439 36.2893 65.3264 36.1698 65.1844 36.0832C65.0424 35.9966 64.8796 35.9533 64.696 35.9533C64.5124 35.9533 64.3496 35.9966 64.2076 36.0832C64.0656 36.1698 63.953 36.2893 63.8699 36.4417C63.7902 36.5941 63.7504 36.769 63.7504 36.9665C63.7504 37.1605 63.7902 37.3336 63.8699 37.486C63.953 37.6385 64.0656 37.7597 64.2076 37.8497C64.3496 37.9363 64.5124 37.9796 64.696 37.9796Z" fill="#242424"/>
<path d="M70.1906 38.8525C69.8165 38.8525 69.503 38.7884 69.2502 38.6603C68.9973 38.5321 68.7808 38.3537 68.6007 38.1251L69.1619 37.4912C69.335 37.7199 69.51 37.874 69.6866 37.9537C69.8667 38.0333 70.0468 38.0732 70.227 38.0732C70.3621 38.0732 70.4729 38.0489 70.5595 38.0004C70.6461 37.9519 70.6894 37.8792 70.6894 37.7822C70.6894 37.6991 70.653 37.6298 70.5803 37.5744C70.511 37.519 70.4227 37.4757 70.3153 37.4445C70.2079 37.4098 70.0988 37.3804 69.988 37.3562C69.5862 37.2696 69.2866 37.1327 69.0891 36.9457C68.8917 36.7587 68.793 36.511 68.793 36.2027C68.793 35.9776 68.857 35.7819 68.9852 35.6156C69.1168 35.4459 69.2883 35.3143 69.4996 35.2207C69.7109 35.1237 69.9377 35.0753 70.1802 35.0753C70.5474 35.0753 70.8383 35.1324 71.0531 35.2467C71.2678 35.3576 71.441 35.51 71.5727 35.7039L71.0063 36.2495C70.8955 36.1213 70.7725 36.0261 70.6374 35.9637C70.5023 35.8979 70.3621 35.865 70.2166 35.865C70.0711 35.865 69.9551 35.8892 69.8685 35.9377C69.7819 35.9862 69.7386 36.0572 69.7386 36.1508C69.7386 36.2235 69.768 36.2841 69.8269 36.3326C69.8893 36.3811 69.9672 36.4209 70.0607 36.4521C70.1542 36.4798 70.2512 36.5041 70.3517 36.5248C70.6045 36.5733 70.8262 36.6443 71.0167 36.7379C71.2107 36.8314 71.3614 36.9544 71.4687 37.1068C71.5761 37.2557 71.6298 37.441 71.6298 37.6627C71.6298 37.919 71.5675 38.1355 71.4428 38.3122C71.3181 38.4888 71.1466 38.6239 70.9284 38.7174C70.7136 38.8075 70.4677 38.8525 70.1906 38.8525Z" fill="#242424"/>
<path d="M73.9511 38.8525C73.577 38.8525 73.2462 38.7728 72.9587 38.6135C72.6747 38.4507 72.4512 38.2273 72.2884 37.9433C72.1256 37.6592 72.0442 37.3336 72.0442 36.9665C72.0442 36.6928 72.091 36.4417 72.1845 36.2131C72.2815 35.9845 72.4166 35.7871 72.5898 35.6208C72.7664 35.4511 72.9725 35.3195 73.2081 35.2259C73.4471 35.1324 73.7069 35.0856 73.9874 35.0856C74.2438 35.0856 74.4914 35.1359 74.7304 35.2363C74.9729 35.3333 75.1755 35.4753 75.3383 35.6624L74.7668 36.3118C74.6698 36.201 74.5555 36.1127 74.4239 36.0468C74.2957 35.981 74.1485 35.9481 73.9822 35.9481C73.7987 35.9481 73.6324 35.9897 73.4834 36.0728C73.338 36.156 73.2202 36.2755 73.1301 36.4313C73.0435 36.5837 73.0003 36.7656 73.0003 36.9769C73.0003 37.2851 73.0972 37.5311 73.2912 37.7147C73.4852 37.8982 73.7415 37.99 74.0602 37.99C74.2195 37.99 74.3684 37.9571 74.507 37.8913C74.649 37.8255 74.7668 37.7406 74.8603 37.6367L75.3123 38.3485C75.2257 38.4455 75.1097 38.5321 74.9642 38.6083C74.8187 38.6845 74.6577 38.7451 74.481 38.7902C74.3078 38.8317 74.1312 38.8525 73.9511 38.8525Z" fill="#242424"/>
<path d="M75.823 38.8006V38.0212H76.4465V35.9429H75.823V35.1636H78V35.9429H77.3817V38.0212H78V38.8006H75.823Z" fill="#242424"/>
<path fill-rule="evenodd" clip-rule="evenodd" d="M40.3667 8.03654L40.412 8.13745L40.4612 8.24225L40.4677 8.25836L40.5084 8.35333L40.5543 8.45515L40.6171 8.60536L40.6145 8.5998L40.6708 8.73041L40.6785 8.74884L40.7083 8.82395L40.7316 8.87906L40.8092 9.07851L40.7976 9.04797L40.861 9.20866L40.8694 9.23092L40.8661 9.22257L40.8823 9.26294L40.8953 9.29994L40.9684 9.50216L40.9819 9.53761L40.9671 9.49738L41.0389 9.69319L41.0512 9.73071L41.0486 9.72366L41.0531 9.73557L41.0706 9.78428L41.1314 9.96903L41.2032 10.1838L41.2226 10.2469L41.3022 10.5071L41.3377 10.6247L41.3397 10.6319L41.3546 10.6803L41.3778 10.7647L41.4024 10.8477L41.4387 10.9856L41.4632 11.0728L41.471 11.1046L41.4704 11.1013L41.4924 11.1825L41.5312 11.341L41.5189 11.2888L41.5448 11.3892L41.5674 11.4863L41.5771 11.5254L41.5881 11.5734L41.6166 11.6902L41.6444 11.8193L41.6715 11.9369L41.6968 12.0627L41.7272 12.203L41.7556 12.3559L41.7828 12.4906L41.8009 12.5999L41.8236 12.721L41.843 12.8434L41.8533 12.908L41.8611 12.9544L41.8773 13.05L41.8883 13.1299L41.8921 13.1588L41.9057 13.2438L41.9154 13.3203C41.9206 13.3587 41.9258 13.397 41.9309 13.4354L41.9458 13.5505L41.9549 13.6148L41.962 13.6812L41.9639 13.6995L41.9736 13.7713L41.9808 13.8489C43.4046 12.8668 44.4565 11.3848 44.8828 9.6571V9.65522C45.0212 9.10102 45.0943 8.52165 45.0943 7.92546C45.0943 7.43375 45.0445 6.95343 44.95 6.48889C47.7932 9.56808 49.6233 13.5971 49.9066 18.0437C49.9066 18.0454 49.9066 18.0469 49.9066 18.0485L49.9047 18.0313C49.9493 18.4409 49.972 18.8561 49.972 19.2764C49.972 19.7076 49.9487 20.1334 49.9008 20.5523C49.906 20.481 49.9105 20.4095 49.915 20.338L49.9157 20.3216L49.9202 20.2367L49.917 20.2962L49.915 20.338C49.9105 20.4095 49.906 20.481 49.9008 20.5523C49.38 25.3331 45.897 29.3167 41.3745 30.5688C43.7156 29.4201 45.3324 26.9352 45.3143 24.2411C45.3136 23.9903 45.2981 23.737 45.269 23.4822C45.2399 23.2338 45.1985 22.99 45.1441 22.7511L45.1461 22.761C45.1461 22.7601 45.1461 22.7592 45.1454 22.7583C44.6738 20.15 43.3173 17.8943 41.4264 16.2693C41.5137 16.5373 41.5758 16.8177 41.6094 17.1083C41.6502 17.4606 41.647 17.8079 41.603 18.1449V18.1461C41.4697 19.1962 40.949 20.144 40.1753 20.8217L40.1656 20.7764L40.1552 20.7346L40.1436 20.6852L40.1339 20.6478L40.1177 20.5808C40.1119 20.5584 40.106 20.5361 40.1002 20.5139L40.0892 20.4693L40.0711 20.4032L40.0595 20.3567L40.0245 20.237L40.0051 20.166L39.9838 20.0959L39.965 20.0326L39.9398 19.9549L39.9126 19.8665L39.8854 19.7857L39.8615 19.713L39.8376 19.6454L39.8123 19.571L39.7878 19.5039L39.7774 19.4763L39.769 19.4539L39.7496 19.398L39.727 19.3406L39.738 19.3705L39.7043 19.2795L39.6856 19.233L39.6862 19.2349L39.6791 19.2167L39.659 19.1668L39.628 19.0878L39.6079 19.0404L39.5885 18.9922L39.465 18.7091L39.4074 18.5871L39.3589 18.4821L39.3453 18.4545L39.342 18.4477L39.344 18.4517L39.3343 18.4305L39.278 18.3196L39.2896 18.3424L39.2793 18.3224L39.212 18.1869L39.1958 18.1563L39.1473 18.0657L39.1564 18.0829L39.0969 17.9704L39.0794 17.9394L39.0568 17.897L39.0089 17.8134L39.0102 17.8165L38.963 17.732L38.9293 17.6749L38.8983 17.6216L38.8931 17.6126L38.8569 17.554L38.8239 17.4974L38.776 17.4218L38.7398 17.3618L38.7385 17.3617L38.679 17.2668L38.5929 17.1365L38.5431 17.0605L38.3562 16.7931L38.3044 16.723L38.2132 16.5989L38.188 16.566L38.1621 16.5317L38.1116 16.4676L38.0476 16.3846L38.001 16.3272L37.9609 16.2763L37.9214 16.2289L37.8775 16.1746L37.805 16.0898L37.7526 16.0273L37.7274 15.9984L37.7021 15.9689L37.5883 15.8414L37.5378 15.7846L37.3159 15.5484L37.2603 15.4924L37.1484 15.3789L37.1167 15.3481L37.0876 15.3189L37.0313 15.2656L36.955 15.1914L36.8987 15.1394L36.8528 15.0961L36.8088 15.0565L36.7874 15.0369L36.757 15.0087L36.6703 14.9329L36.6115 14.8802L36.5837 14.8565L36.5545 14.8308L36.418 14.7167L36.365 14.6714L36.1121 14.4697L36.0513 14.424L35.9232 14.3269L35.8863 14.3L35.8533 14.2754L35.7925 14.2321L35.7052 14.1691L35.6398 14.1243L35.5894 14.0885L35.5415 14.0569L35.4833 14.0165L35.3836 13.9514L35.3196 13.9092L35.2905 13.8909L35.2575 13.8692C35.0964 13.7661 34.9321 13.6682 34.7658 13.5739L34.3402 13.5585C34.4198 13.8283 34.4819 14.106 34.5265 14.3906L34.5291 14.3888L34.5278 14.3899C34.544 14.49 34.5575 14.591 34.5698 14.6927C34.7665 16.3926 34.3292 18.0208 33.4436 19.3394L33.3168 19.5255L33.1169 19.7909L33.0237 19.9027L33.0483 19.8712L32.9597 19.9779L32.9843 19.9499L32.9468 19.9948C31.8539 21.382 31.2878 23.1846 31.5068 25.0758C31.7948 27.5627 33.3692 29.5901 35.4884 30.5688C35.3908 30.544 35.2937 30.518 35.1967 30.4906C30.2882 29.1247 26.6834 24.6182 26.6834 19.2764C26.6834 16.0759 27.9774 13.1753 30.0707 11.0703L30.1418 11.0026L30.0954 11.0444L30.2641 10.8836L30.2165 10.9313L30.3935 10.7626L30.7791 10.3581L31.027 10.072C32.7604 8.04139 33.8058 5.40707 33.8058 2.53049C33.8058 2.35835 33.802 2.18698 33.7942 2.01672L33.7961 2.0151L33.7923 2.01762C33.7729 1.53393 33.723 1.05794 33.6415 0.592106L34.3492 0.700074C34.6087 0.889617 34.8635 1.08563 35.1119 1.28895L35.1132 1.28837L35.1643 1.33093L35.2096 1.36716L35.308 1.45003L35.4619 1.57792L35.5518 1.65678L35.6249 1.71869L35.7026 1.78823L35.8028 1.87569L35.9361 1.9977L36.0299 2.08179L36.0797 2.12915L36.1366 2.18142L36.3314 2.36818L36.4239 2.45629L36.8075 2.84191L36.8883 2.92788L37.0934 3.14492L37.1374 3.19343L37.1794 3.23839L37.2674 3.33776L37.3968 3.48105L37.4738 3.57097L37.5398 3.64542L37.6077 3.72668L37.6918 3.82442L37.8057 3.96305L37.8891 4.06287L37.9318 4.11741L37.979 4.17491L38.144 4.386L38.2261 4.49034L38.5509 4.92765L38.624 5.03226L38.7896 5.26734L38.8258 5.32142L38.8633 5.37453L38.9384 5.4889L39.0425 5.64461L39.1059 5.74385L39.1629 5.83073L39.2198 5.9233L39.2864 6.02829L39.3776 6.17928L39.4494 6.29598L39.485 6.35821L39.5212 6.41818L39.6493 6.64298L39.7231 6.76997L39.9825 7.25256L40.0511 7.38905L40.1701 7.62343L40.2509 7.79343L40.2529 7.79369L40.3027 7.90101L40.3667 8.03654ZM45.3065 24.095L45.3071 24.1037L45.3039 24.0532L45.3065 24.095ZM45.3065 24.0909V24.0977L45.3058 24.0775L45.3065 24.0909ZM45.2806 23.7485L45.2729 23.6669L45.2793 23.7377L45.2806 23.7485L45.2819 23.7627L45.2864 23.8106L45.2806 23.7485ZM49.917 20.2962L49.9189 20.2676L49.9137 20.3542L49.915 20.338L49.9157 20.3216L49.917 20.2962ZM49.9396 19.7473L49.937 19.8281C49.9383 19.8011 49.939 19.7742 49.9396 19.7473ZM49.9448 19.4486V19.4639C49.9448 19.4588 49.9448 19.4537 49.9448 19.4486ZM39.4979 18.7824L39.5393 18.8803L39.4805 18.7451L39.4979 18.7824ZM38.7223 17.3337L38.7398 17.3618L38.7385 17.3617L38.6984 17.2976L38.7223 17.3337ZM42.0946 16.0589C42.0946 16.1004 42.094 16.1418 42.0933 16.1832C42.092 16.2698 42.0901 16.3562 42.0875 16.4424V16.4713L42.0894 16.3945C42.0907 16.3439 42.0914 16.2933 42.0927 16.2427C42.0933 16.1814 42.094 16.1202 42.0946 16.0589ZM37.9428 15.122L37.9253 15.1221C37.9311 15.1221 37.937 15.1221 37.9428 15.122ZM37.7474 15.1206L37.752 15.1207C37.7507 15.1206 37.7487 15.1206 37.7474 15.1206ZM37.739 15.1205L37.7448 15.1206C37.7429 15.1205 37.741 15.1205 37.739 15.1205ZM37.73 15.1203L37.7332 15.1203C37.7326 15.1203 37.7313 15.1203 37.73 15.1203ZM37.6918 15.1193L37.6996 15.1195C37.697 15.1194 37.6944 15.1194 37.6918 15.1193ZM38.1162 15.1189L38.111 15.119C38.1129 15.119 38.1142 15.1189 38.1162 15.1189ZM37.5715 15.1149L37.5786 15.1152C37.576 15.1151 37.5741 15.115 37.5715 15.1149ZM37.5152 15.1122L37.5197 15.1124C37.5184 15.1123 37.5165 15.1122 37.5152 15.1122ZM38.2934 15.1114L38.2856 15.1118C38.2882 15.1117 38.2908 15.1116 38.2934 15.1114ZM37.4977 15.1112L37.5023 15.1115C37.501 15.1114 37.499 15.1113 37.4977 15.1112ZM37.4667 15.1095L37.4945 15.111C37.4848 15.1106 37.4757 15.11 37.4667 15.1095ZM37.4531 15.1086L37.4576 15.1089C37.4563 15.1088 37.4544 15.1087 37.4531 15.1086ZM37.4072 15.1057L37.413 15.1061C37.411 15.106 37.4091 15.1058 37.4072 15.1057ZM37.3865 15.1043L37.3923 15.1047C37.3903 15.1045 37.3884 15.1044 37.3865 15.1043ZM37.3625 15.1025L37.3658 15.1028C37.3645 15.1027 37.3638 15.1026 37.3625 15.1025ZM37.3192 15.0992L37.3237 15.0996C37.3218 15.0994 37.3205 15.0993 37.3192 15.0992ZM38.5476 15.0932L38.5379 15.094C38.5412 15.0937 38.5444 15.0934 38.5476 15.0932ZM37.1898 15.0878L37.1956 15.0883C37.1937 15.0881 37.1917 15.088 37.1898 15.0878ZM38.6039 15.0878L38.6007 15.0882C38.6013 15.088 38.6026 15.088 38.6039 15.0878ZM37.1672 15.0855L37.1697 15.0857C37.1691 15.0856 37.1685 15.0856 37.1672 15.0855ZM37.1516 15.0839L37.1562 15.0844C37.1542 15.0842 37.1529 15.084 37.1516 15.0839ZM36.9524 15.0605C36.9589 15.0614 36.9653 15.0622 36.9718 15.0631L36.9511 15.0604L36.9524 15.0605ZM39.0031 15.0375L38.9998 15.038C39.0011 15.0379 39.0018 15.0377 39.0031 15.0375ZM39.4248 14.9594L39.4223 14.9599C39.4236 14.9597 39.4242 14.9596 39.4248 14.9594ZM39.5083 14.9409L39.5018 14.9423C39.5038 14.9419 39.5064 14.9413 39.5083 14.9409ZM39.5154 14.9392L39.5122 14.9399C39.5135 14.9396 39.5141 14.9394 39.5154 14.9392ZM40.6863 14.5604L40.6876 14.56L40.6747 14.5653C40.6785 14.5637 40.6824 14.562 40.6863 14.5604ZM41.1391 14.3504L41.134 14.3533C41.1359 14.3523 41.1378 14.3514 41.1391 14.3504ZM41.4626 14.176L41.4594 14.178C41.4607 14.1773 41.4619 14.1766 41.4626 14.176ZM34.4055 13.3774C34.4844 13.4197 34.564 13.4622 34.6429 13.5046L34.7658 13.5739L34.5388 13.5628L34.3402 13.5585L34.269 13.3229L34.2632 13.3057L34.4055 13.3774ZM41.2439 10.3126L41.295 10.484L41.2226 10.2469L41.2439 10.3126ZM31.1417 10.4045L31.1497 10.4263C31.147 10.419 31.1444 10.4118 31.1417 10.4045ZM40.229 7.74336L40.2529 7.79369L40.2509 7.79343L40.196 7.67854L40.229 7.74336ZM40.2154 7.78735L40.2192 7.788C40.218 7.7878 40.2167 7.78761 40.2154 7.78735ZM33.7858 0.302229C33.9094 0.388396 34.0342 0.474563 34.1584 0.560666L34.3492 0.700074L33.9727 0.637712L33.6415 0.592106L33.5691 0.18501L33.562 0.155058L33.7858 0.302229Z" fill="#EF3035"/>
<path d="M15.4286 30.6263C12.4017 30.6263 9.72518 29.9817 7.39898 28.6924C5.10081 27.3752 3.29311 25.5675 1.97586 23.2693C0.658622 20.9712 0 18.3367 0 15.3659C0 13.1518 0.378357 11.1199 1.13507 9.27011C1.91981 7.42037 3.01284 5.82286 4.41416 4.47759C5.84351 3.1043 7.51109 2.03929 9.41688 1.28258C11.3507 0.525861 13.4527 0.147504 15.7228 0.147504C17.7968 0.147504 19.8007 0.553888 21.7345 1.36665C23.6964 2.15139 25.3359 3.30048 26.6531 4.81391L22.0288 10.0689C21.244 9.17202 20.3192 8.45734 19.2542 7.92484C18.2172 7.39234 17.0261 7.12609 15.6808 7.12609C14.1954 7.12609 12.8501 7.46241 11.645 8.13504C10.4679 8.80767 9.51498 9.77459 8.78629 11.0358C8.08563 12.2689 7.7353 13.7403 7.7353 15.4499C7.7353 17.9443 8.52004 19.9342 10.0895 21.4196C11.659 22.905 13.733 23.6477 16.3114 23.6477C17.6006 23.6477 18.8057 23.3814 19.9268 22.8489C21.0759 22.3164 22.0288 21.6298 22.7855 20.789L26.4429 26.5484C25.7423 27.3332 24.8034 28.0338 23.6263 28.6504C22.4492 29.267 21.146 29.7574 19.7166 30.1218C18.3153 30.4581 16.8859 30.6263 15.4286 30.6263Z" fill="#242424"/>
<path d="M52.2516 30.6262V0.147491H66.0976C68.1005 0.147491 69.8857 0.56839 71.4532 1.41019C73.0497 2.25198 74.2979 3.41307 75.1977 4.89347C76.1266 6.34484 76.591 7.9994 76.591 9.85715C76.591 11.9181 76.083 13.7468 75.0671 15.3433C74.0802 16.9108 72.7449 18.1154 71.0613 18.9572L77.8537 30.6262H68.9278L62.9627 20.0458H59.6971V30.6262H52.2516ZM59.6971 14.1677H65.2703C66.4024 14.1677 67.2877 13.8194 67.9263 13.1227C68.565 12.4261 68.8843 11.4972 68.8843 10.3361C68.8843 9.20404 68.5214 8.30419 67.7957 7.63656C67.07 6.9399 66.0541 6.59157 64.7479 6.59157H59.6971V14.1677Z" fill="#242424"/>
</svg>
